<svg width="186" height="27" viewBox="0 0 186 27" fill="none" xmlns="http://www.w3.org/2000/svg">
<path d="M72.4783 19.5245C70.9043 19.5245 68.7413 18.5823 68.3318 16.1088C67.6545 12.0132 70.3287 7.77569 74.6225 7.17339C77.5001 6.76918 83.3223 6.99403 85.86 6.99403C86.3204 4.76151 86.813 2.67086 87.2761 0.419599C82.4684 0.419599 83.1323 0.395508 78.1586 0.395508C76.598 0.395508 75.0133 0.566828 73.4901 0.888054C66.6908 2.31751 61.8403 7.58028 61.0212 14.2939C60.3653 19.6584 62.9967 24.1823 67.7776 25.6064C70.6365 26.4577 73.3616 26.2569 74.3815 26.2596C79.2294 26.2676 76.606 26.2596 81.8019 26.2596C82.2328 24.2252 82.704 21.9311 83.1965 19.6129C82.5996 19.6129 76.5926 19.6263 72.4783 19.5245Z" fill="currentColor"/>
<path d="M22.5472 0.879945C21.5674 0.588164 20.5475 0.465028 19.525 0.462351C14.6771 0.45432 10.6163 0.371338 5.42045 0.371338C4.98947 2.40577 4.53172 4.55532 4.03917 6.8735C4.63612 6.8735 5.06979 6.8735 5.50077 6.8735C9.61515 6.89491 13.7322 6.86011 17.8439 6.96183C20.0175 7.01537 21.4175 8.28422 21.9904 10.3775C23.0852 14.3822 19.9934 18.7107 15.6997 19.313C12.8221 19.7172 3.90533 19.4923 1.36764 19.4923C0.907217 21.7249 0.465534 23.8637 -0.000244141 26.1123C4.80745 26.1123 7.18986 26.0909 12.1635 26.0909C13.7241 26.0909 15.3089 25.9195 16.832 25.5983C23.6313 24.1689 28.4818 18.9061 29.301 12.1925C29.9568 6.82799 27.3227 2.3094 22.5445 0.879945H22.5472Z" fill="currentColor"/>
<path d="M109.576 26.2469H116.531C118.364 17.5711 118.075 19.0835 119.89 10.4961H112.933C111.113 19.121 111.396 17.6327 109.576 26.2469Z" fill="currentColor"/>
<path d="M152.626 0.40651C152.128 0.425248 151.467 0.757182 151.159 1.15068C149.427 3.37786 147.784 5.67462 146.102 7.94195C143.683 11.2131 141.257 14.4789 138.752 17.8652C138.591 17.3914 138.471 17.0648 138.366 16.7355C137.044 12.5649 135.537 7.67426 134.142 3.24133C133.601 1.52009 132.003 0.352969 130.199 0.360999C128.596 0.366353 116.437 0.441311 115.099 0.441311C114.652 2.56676 114.025 5.53275 113.693 7.10676H126.981C127.383 7.10676 127.742 7.36374 127.87 7.74386C128.462 9.49722 129.053 11.2479 129.642 13.0013C130.876 16.6659 132.092 20.3359 133.339 23.9926C133.947 25.778 134.694 26.1823 136.559 26.3241C138.819 26.4955 140.379 25.5693 141.702 23.8079C146.282 17.7099 150.932 11.6655 155.552 5.59699C156.834 3.91591 158.106 2.22412 159.511 0.366358C157.046 0.366358 154.834 0.320852 152.626 0.401159V0.40651Z" fill="currentColor"/>
<path d="M48.7681 0.0101127C46.5623 -0.104994 45.0258 0.764995 43.7329 2.49426C39.5007 8.14517 27.6796 23.6363 25.9102 25.9652C28.3247 25.9652 30.4903 26.0107 32.6505 25.9304C33.1538 25.9117 33.7989 25.5905 34.1068 25.1943C35.8896 22.9029 44.2174 11.6198 46.7926 8.15053C47.7 11.0282 50.7169 20.4134 50.7169 20.4134C48.0962 20.408 43.5963 20.408 42.4694 20.4401C42.0812 20.4508 41.5646 20.6168 41.3424 20.8979C40.0923 22.4719 38.9118 24.086 37.5171 25.9545C42.464 25.9545 57.6955 25.9786 60.0538 25.9786C59.8129 25.2077 53.6909 7.06104 52.141 2.48623C51.4932 0.577613 50.0102 0.0770375 48.7681 0.0127922V0.0101127Z" fill="currentColor"/>
<path d="M16.1017 10.34H3.30619L2.11499 15.9909H14.3055C19.148 15.9909 19.7343 10.34 16.1017 10.34Z" fill="currentColor"/>
<path d="M172.965 0.395435C171.405 0.395435 169.82 0.566755 168.297 0.887981C161.497 2.31744 156.647 7.5802 155.828 14.2938C155.172 19.6583 157.806 24.1769 162.584 25.6064C163.564 25.8981 164.584 26.0213 165.606 26.024C170.454 26.032 174.515 26.115 179.711 26.115C180.142 24.0805 180.6 21.931 181.092 19.6128C180.495 19.6128 180.062 19.6128 179.631 19.6128C175.516 19.5914 171.399 19.6262 167.288 19.5245C165.114 19.4709 163.714 18.2021 163.141 16.1088C162.046 12.1041 165.138 7.77561 169.432 7.17332C172.309 6.76911 181.226 6.99396 183.764 6.99396C184.224 4.76144 184.666 2.62261 185.132 0.374023C180.324 0.374023 177.942 0.395435 172.968 0.395435H172.965Z" fill="currentColor"/>
<path d="M169.026 16.1441H181.822L183.013 10.4932H170.823C165.98 10.4932 165.394 16.1441 169.026 16.1441Z" fill="currentColor"/>
<path d="M111.611 0.419922H90.7872C90.3268 2.57749 89.8663 4.71633 89.3711 7.04255H96.3471C94.9765 13.5394 93.6407 19.8648 92.2889 26.2599H99.3371C101.878 13.9489 102.116 12.7443 103.296 6.98901H110.213C110.213 6.98901 111.364 1.6272 111.616 0.419922H111.611Z" fill="currentColor"/>
</svg>
