<svg width="487" height="135" viewBox="0 0 487 135" fill="none" xmlns="http://www.w3.org/2000/svg">
<rect x="1.5" y="1.5" width="470" height="132" rx="8.5" fill="black" stroke="#999999" stroke-width="3"/>
<path d="M159.46 45H152.397V23.1818H159.684C161.822 23.1818 163.658 23.6186 165.192 24.4922C166.726 25.3587 167.901 26.6051 168.718 28.2315C169.542 29.8509 169.954 31.7933 169.954 34.0589C169.954 36.3317 169.538 38.2848 168.707 39.9183C167.884 41.5518 166.69 42.8089 165.128 43.6896C163.565 44.5632 161.676 45 159.46 45ZM155.689 42.1236H159.279C160.941 42.1236 162.322 41.8111 163.423 41.1861C164.524 40.554 165.348 39.6413 165.895 38.4482C166.442 37.2479 166.715 35.7848 166.715 34.0589C166.715 32.3473 166.442 30.8949 165.895 29.7017C165.355 28.5085 164.549 27.603 163.477 26.9851C162.404 26.3672 161.072 26.0582 159.482 26.0582H155.689V42.1236ZM179.844 45.3303C178.232 45.3303 176.844 44.9858 175.679 44.2969C174.521 43.6009 173.626 42.6243 172.994 41.3672C172.369 40.103 172.057 38.6222 172.057 36.9247C172.057 35.2486 172.369 33.7713 172.994 32.4929C173.626 31.2145 174.507 30.2166 175.636 29.4993C176.773 28.782 178.101 28.4233 179.621 28.4233C180.544 28.4233 181.439 28.576 182.305 28.8814C183.172 29.1868 183.949 29.6662 184.638 30.3196C185.327 30.973 185.871 31.8217 186.268 32.8658C186.666 33.9027 186.865 35.1634 186.865 36.6477V37.777H173.857V35.3906H183.743C183.743 34.5526 183.573 33.8104 183.232 33.1641C182.891 32.5107 182.412 31.9957 181.794 31.6193C181.183 31.2429 180.466 31.0547 179.642 31.0547C178.747 31.0547 177.966 31.2749 177.298 31.7152C176.638 32.1484 176.126 32.7166 175.764 33.4197C175.409 34.1158 175.231 34.8722 175.231 35.6889V37.5533C175.231 38.647 175.423 39.5774 175.807 40.3445C176.197 41.1115 176.741 41.6974 177.437 42.1023C178.133 42.5 178.946 42.6989 179.876 42.6989C180.48 42.6989 181.03 42.6136 181.528 42.4432C182.025 42.2656 182.454 42.0028 182.817 41.6548C183.179 41.3068 183.456 40.8771 183.648 40.3658L186.662 40.9091C186.421 41.7969 185.988 42.5746 185.363 43.2422C184.745 43.9027 183.967 44.4176 183.03 44.7869C182.099 45.1491 181.037 45.3303 179.844 45.3303ZM201.661 32.6314L198.774 33.1428C198.653 32.7734 198.462 32.4219 198.199 32.0881C197.943 31.7543 197.595 31.4808 197.155 31.2678C196.714 31.0547 196.164 30.9482 195.504 30.9482C194.602 30.9482 193.849 31.1506 193.245 31.5554C192.641 31.9531 192.339 32.468 192.339 33.1001C192.339 33.647 192.542 34.0874 192.947 34.4212C193.352 34.755 194.005 35.0284 194.907 35.2415L197.506 35.8381C199.012 36.1861 200.134 36.7223 200.873 37.4467C201.612 38.1712 201.981 39.1122 201.981 40.2699C201.981 41.25 201.697 42.1236 201.129 42.8906C200.567 43.6506 199.783 44.2472 198.774 44.6804C197.773 45.1136 196.612 45.3303 195.29 45.3303C193.458 45.3303 191.963 44.9396 190.805 44.1584C189.648 43.37 188.938 42.2514 188.675 40.8026L191.754 40.3338C191.945 41.1364 192.339 41.7436 192.936 42.1555C193.533 42.5604 194.31 42.7628 195.269 42.7628C196.313 42.7628 197.148 42.5462 197.773 42.1129C198.398 41.6726 198.71 41.1364 198.71 40.5043C198.71 39.9929 198.518 39.5632 198.135 39.2152C197.759 38.8672 197.18 38.6044 196.398 38.4268L193.629 37.8196C192.102 37.4716 190.972 36.9176 190.241 36.1577C189.516 35.3977 189.154 34.4354 189.154 33.2706C189.154 32.3047 189.424 31.4595 189.964 30.7351C190.504 30.0107 191.249 29.446 192.201 29.0412C193.153 28.6293 194.243 28.4233 195.472 28.4233C197.24 28.4233 198.632 28.8068 199.648 29.5739C200.663 30.3338 201.335 31.353 201.661 32.6314ZM211.376 45.3303C209.792 45.3303 208.428 44.9716 207.285 44.2543C206.149 43.5298 205.275 42.532 204.664 41.2607C204.053 39.9893 203.748 38.5334 203.748 36.8928C203.748 35.2308 204.061 33.7642 204.686 32.4929C205.311 31.2145 206.191 30.2166 207.328 29.4993C208.464 28.782 209.803 28.4233 211.344 28.4233C212.587 28.4233 213.695 28.6541 214.668 29.1158C215.641 29.5703 216.426 30.2095 217.022 31.0334C217.626 31.8572 217.985 32.8196 218.098 33.9205H214.998C214.828 33.1534 214.437 32.4929 213.826 31.9389C213.222 31.3849 212.413 31.108 211.397 31.108C210.509 31.108 209.732 31.3423 209.064 31.8111C208.404 32.2727 207.889 32.9332 207.519 33.7926C207.15 34.6449 206.965 35.6534 206.965 36.8182C206.965 38.0114 207.146 39.0412 207.509 39.9077C207.871 40.7741 208.382 41.4453 209.043 41.9212C209.71 42.397 210.495 42.6349 211.397 42.6349C212.001 42.6349 212.548 42.5249 213.038 42.3047C213.535 42.0774 213.95 41.7543 214.284 41.3352C214.625 40.9162 214.863 40.4119 214.998 39.8224H218.098C217.985 40.8807 217.64 41.8253 217.065 42.6562C216.49 43.4872 215.719 44.1406 214.753 44.6165C213.794 45.0923 212.669 45.3303 211.376 45.3303ZM225.267 45.3622C224.23 45.3622 223.292 45.1705 222.454 44.7869C221.616 44.3963 220.952 43.8317 220.462 43.093C219.979 42.3544 219.738 41.4489 219.738 40.3764C219.738 39.4531 219.915 38.6932 220.27 38.0966C220.625 37.5 221.105 37.0277 221.708 36.6797C222.312 36.3317 222.987 36.0689 223.733 35.8913C224.478 35.7138 225.238 35.5788 226.012 35.4865C226.993 35.3729 227.788 35.2805 228.399 35.2095C229.01 35.1314 229.453 35.0071 229.73 34.8366C230.007 34.6662 230.146 34.3892 230.146 34.0057V33.9311C230.146 33.0007 229.883 32.2798 229.358 31.7685C228.839 31.2571 228.065 31.0014 227.035 31.0014C225.963 31.0014 225.118 31.2393 224.5 31.7152C223.889 32.1839 223.466 32.706 223.232 33.2812L220.238 32.5994C220.593 31.6051 221.112 30.8026 221.794 30.1918C222.483 29.5739 223.275 29.1264 224.169 28.8494C225.064 28.5653 226.005 28.4233 226.993 28.4233C227.646 28.4233 228.338 28.5014 229.07 28.6577C229.809 28.8068 230.498 29.0838 231.137 29.4886C231.783 29.8935 232.312 30.4723 232.724 31.2251C233.136 31.9709 233.342 32.9403 233.342 34.1335V45H230.231V42.7628H230.103C229.897 43.1747 229.588 43.5795 229.176 43.9773C228.765 44.375 228.235 44.7053 227.589 44.968C226.943 45.2308 226.169 45.3622 225.267 45.3622ZM225.959 42.8054C226.84 42.8054 227.593 42.6314 228.218 42.2834C228.85 41.9354 229.329 41.4808 229.656 40.9197C229.99 40.3516 230.157 39.7443 230.157 39.098V36.9886C230.043 37.1023 229.823 37.2088 229.496 37.3082C229.176 37.4006 228.811 37.4822 228.399 37.5533C227.987 37.6172 227.586 37.6776 227.195 37.7344C226.804 37.7841 226.478 37.8267 226.215 37.8622C225.597 37.9403 225.032 38.0717 224.521 38.2564C224.017 38.4411 223.612 38.7074 223.306 39.0554C223.008 39.3963 222.859 39.8509 222.859 40.419C222.859 41.2074 223.15 41.804 223.733 42.2088C224.315 42.6065 225.057 42.8054 225.959 42.8054ZM225.842 26.4524L228.335 21.5412H231.691L228.388 26.4524H225.842ZM236.585 45V28.6364H239.664V31.2358H239.834C240.132 30.3551 240.658 29.6626 241.411 29.1584C242.171 28.647 243.03 28.3913 243.989 28.3913C244.188 28.3913 244.422 28.3984 244.692 28.4126C244.969 28.4268 245.186 28.4446 245.342 28.4659V31.5128C245.214 31.4773 244.987 31.4382 244.66 31.3956C244.333 31.3459 244.007 31.321 243.68 31.321C242.927 31.321 242.256 31.4808 241.666 31.8004C241.084 32.1129 240.622 32.5497 240.281 33.1108C239.941 33.6648 239.77 34.2969 239.77 35.0071V45H236.585ZM253.373 51.4773C252.074 51.4773 250.955 51.3068 250.017 50.9659C249.087 50.625 248.327 50.174 247.738 49.6129C247.148 49.0518 246.708 48.4375 246.417 47.7699L249.154 46.6406C249.346 46.9531 249.602 47.2834 249.922 47.6314C250.248 47.9865 250.689 48.2884 251.243 48.5369C251.804 48.7855 252.525 48.9098 253.405 48.9098C254.613 48.9098 255.61 48.6151 256.399 48.0256C257.187 47.4432 257.581 46.5128 257.581 45.2344V42.017H257.379C257.187 42.3651 256.91 42.7521 256.548 43.1783C256.193 43.6044 255.703 43.9737 255.078 44.2862C254.453 44.5987 253.64 44.755 252.638 44.755C251.346 44.755 250.181 44.4531 249.144 43.8494C248.114 43.2386 247.297 42.3402 246.694 41.1541C246.097 39.9609 245.799 38.4943 245.799 36.7543C245.799 35.0142 246.093 33.5227 246.683 32.2798C247.279 31.0369 248.096 30.0852 249.133 29.4247C250.17 28.7571 251.346 28.4233 252.659 28.4233C253.675 28.4233 254.495 28.5938 255.12 28.9347C255.745 29.2685 256.232 29.6591 256.58 30.1065C256.935 30.554 257.208 30.9482 257.4 31.2891H257.635V28.6364H260.756V45.3622C260.756 46.7685 260.429 47.9226 259.776 48.8246C259.123 49.7266 258.238 50.3942 257.123 50.8274C256.015 51.2607 254.765 51.4773 253.373 51.4773ZM253.341 42.1129C254.257 42.1129 255.032 41.8999 255.664 41.4737C256.303 41.0405 256.786 40.4226 257.113 39.62C257.446 38.8104 257.613 37.8409 257.613 36.7116C257.613 35.6108 257.45 34.6413 257.123 33.8033C256.797 32.9652 256.317 32.3118 255.685 31.843C255.053 31.3672 254.272 31.1293 253.341 31.1293C252.382 31.1293 251.583 31.3778 250.944 31.875C250.305 32.3651 249.822 33.0327 249.495 33.8778C249.176 34.723 249.016 35.6676 249.016 36.7116C249.016 37.7841 249.179 38.7251 249.506 39.5348C249.833 40.3445 250.316 40.9766 250.955 41.4311C251.601 41.8857 252.397 42.1129 253.341 42.1129ZM268.79 45.3622C267.753 45.3622 266.816 45.1705 265.978 44.7869C265.14 44.3963 264.475 43.8317 263.985 43.093C263.502 42.3544 263.261 41.4489 263.261 40.3764C263.261 39.4531 263.439 38.6932 263.794 38.0966C264.149 37.5 264.628 37.0277 265.232 36.6797C265.836 36.3317 266.51 36.0689 267.256 35.8913C268.002 35.7138 268.762 35.5788 269.536 35.4865C270.516 35.3729 271.311 35.2805 271.922 35.2095C272.533 35.1314 272.977 35.0071 273.254 34.8366C273.531 34.6662 273.669 34.3892 273.669 34.0057V33.9311C273.669 33.0007 273.407 32.2798 272.881 31.7685C272.363 31.2571 271.588 31.0014 270.559 31.0014C269.486 31.0014 268.641 31.2393 268.023 31.7152C267.412 32.1839 266.99 32.706 266.755 33.2812L263.762 32.5994C264.117 31.6051 264.635 30.8026 265.317 30.1918C266.006 29.5739 266.798 29.1264 267.693 28.8494C268.588 28.5653 269.529 28.4233 270.516 28.4233C271.169 28.4233 271.862 28.5014 272.593 28.6577C273.332 28.8068 274.021 29.0838 274.66 29.4886C275.306 29.8935 275.836 30.4723 276.248 31.2251C276.659 31.9709 276.865 32.9403 276.865 34.1335V45H273.755V42.7628H273.627C273.421 43.1747 273.112 43.5795 272.7 43.9773C272.288 44.375 271.759 44.7053 271.113 44.968C270.466 45.2308 269.692 45.3622 268.79 45.3622ZM269.483 42.8054C270.363 42.8054 271.116 42.6314 271.741 42.2834C272.373 41.9354 272.853 41.4808 273.179 40.9197C273.513 40.3516 273.68 39.7443 273.68 39.098V36.9886C273.566 37.1023 273.346 37.2088 273.02 37.3082C272.7 37.4006 272.334 37.4822 271.922 37.5533C271.51 37.6172 271.109 37.6776 270.718 37.7344C270.328 37.7841 270.001 37.8267 269.738 37.8622C269.12 37.9403 268.556 38.0717 268.044 38.2564C267.54 38.4411 267.135 38.7074 266.83 39.0554C266.532 39.3963 266.382 39.8509 266.382 40.419C266.382 41.2074 266.674 41.804 267.256 42.2088C267.838 42.6065 268.581 42.8054 269.483 42.8054ZM283.294 23.1818V45H280.108V23.1818H283.294ZM291.341 45.3622C290.304 45.3622 289.366 45.1705 288.528 44.7869C287.69 44.3963 287.026 43.8317 286.536 43.093C286.053 42.3544 285.812 41.4489 285.812 40.3764C285.812 39.4531 285.989 38.6932 286.344 38.0966C286.7 37.5 287.179 37.0277 287.783 36.6797C288.386 36.3317 289.061 36.0689 289.807 35.8913C290.553 35.7138 291.313 35.5788 292.087 35.4865C293.067 35.3729 293.862 35.2805 294.473 35.2095C295.084 35.1314 295.528 35.0071 295.805 34.8366C296.082 34.6662 296.22 34.3892 296.22 34.0057V33.9311C296.22 33.0007 295.957 32.2798 295.432 31.7685C294.913 31.2571 294.139 31.0014 293.109 31.0014C292.037 31.0014 291.192 31.2393 290.574 31.7152C289.963 32.1839 289.54 32.706 289.306 33.2812L286.312 32.5994C286.668 31.6051 287.186 30.8026 287.868 30.1918C288.557 29.5739 289.349 29.1264 290.244 28.8494C291.138 28.5653 292.08 28.4233 293.067 28.4233C293.72 28.4233 294.413 28.5014 295.144 28.6577C295.883 28.8068 296.572 29.0838 297.211 29.4886C297.857 29.8935 298.386 30.4723 298.798 31.2251C299.21 31.9709 299.416 32.9403 299.416 34.1335V45H296.305V42.7628H296.178C295.972 43.1747 295.663 43.5795 295.251 43.9773C294.839 44.375 294.31 44.7053 293.663 44.968C293.017 45.2308 292.243 45.3622 291.341 45.3622ZM292.033 42.8054C292.914 42.8054 293.667 42.6314 294.292 42.2834C294.924 41.9354 295.403 41.4808 295.73 40.9197C296.064 40.3516 296.231 39.7443 296.231 39.098V36.9886C296.117 37.1023 295.897 37.2088 295.57 37.3082C295.251 37.4006 294.885 37.4822 294.473 37.5533C294.061 37.6172 293.66 37.6776 293.269 37.7344C292.879 37.7841 292.552 37.8267 292.289 37.8622C291.671 37.9403 291.107 38.0717 290.595 38.2564C290.091 38.4411 289.686 38.7074 289.381 39.0554C289.082 39.3963 288.933 39.8509 288.933 40.419C288.933 41.2074 289.224 41.804 289.807 42.2088C290.389 42.6065 291.131 42.8054 292.033 42.8054ZM316.651 45.3303C315.039 45.3303 313.65 44.9858 312.485 44.2969C311.328 43.6009 310.433 42.6243 309.801 41.3672C309.176 40.103 308.863 38.6222 308.863 36.9247C308.863 35.2486 309.176 33.7713 309.801 32.4929C310.433 31.2145 311.314 30.2166 312.443 29.4993C313.579 28.782 314.907 28.4233 316.427 28.4233C317.35 28.4233 318.245 28.576 319.112 28.8814C319.978 29.1868 320.756 29.6662 321.445 30.3196C322.134 30.973 322.677 31.8217 323.075 32.8658C323.473 33.9027 323.672 35.1634 323.672 36.6477V37.777H310.664V35.3906H320.55C320.55 34.5526 320.38 33.8104 320.039 33.1641C319.698 32.5107 319.218 31.9957 318.6 31.6193C317.99 31.2429 317.272 31.0547 316.449 31.0547C315.554 31.0547 314.772 31.2749 314.105 31.7152C313.444 32.1484 312.933 32.7166 312.571 33.4197C312.216 34.1158 312.038 34.8722 312.038 35.6889V37.5533C312.038 38.647 312.23 39.5774 312.613 40.3445C313.004 41.1115 313.547 41.6974 314.243 42.1023C314.939 42.5 315.752 42.6989 316.683 42.6989C317.287 42.6989 317.837 42.6136 318.334 42.4432C318.831 42.2656 319.261 42.0028 319.623 41.6548C319.985 41.3068 320.262 40.8771 320.454 40.3658L323.469 40.9091C323.228 41.7969 322.794 42.5746 322.169 43.2422C321.551 43.9027 320.774 44.4176 319.836 44.7869C318.906 45.1491 317.844 45.3303 316.651 45.3303ZM329.391 35.2841V45H326.206V28.6364H329.263V31.2997H329.466C329.842 30.4332 330.432 29.7372 331.234 29.2116C332.044 28.6861 333.063 28.4233 334.292 28.4233C335.407 28.4233 336.383 28.6577 337.221 29.1264C338.059 29.5881 338.709 30.277 339.171 31.1932C339.633 32.1094 339.863 33.2422 339.863 34.5916V45H336.678V34.9751C336.678 33.7891 336.369 32.8622 335.751 32.1946C335.133 31.5199 334.285 31.1825 333.205 31.1825C332.466 31.1825 331.809 31.3423 331.234 31.6619C330.666 31.9815 330.215 32.4503 329.881 33.0682C329.555 33.679 329.391 34.4176 329.391 35.2841ZM184.325 70.1491C183.913 68.8565 183.359 67.6989 182.663 66.6761C181.982 65.6392 181.165 64.7585 180.213 64.0341C179.261 63.2955 178.175 62.7344 176.953 62.3509C175.746 61.9673 174.418 61.7756 172.969 61.7756C170.511 61.7756 168.295 62.4077 166.321 63.6719C164.347 64.9361 162.784 66.7898 161.634 69.233C160.497 71.6619 159.929 74.6378 159.929 78.1605C159.929 81.6974 160.504 84.6875 161.655 87.1307C162.805 89.5739 164.382 91.4276 166.385 92.6918C168.388 93.956 170.668 94.5881 173.224 94.5881C175.597 94.5881 177.663 94.1051 179.425 93.1392C181.2 92.1733 182.571 90.8097 183.537 89.0483C184.517 87.2727 185.007 85.1847 185.007 82.7841L186.712 83.1037H174.226V77.6705H191.378V82.6349C191.378 86.2997 190.597 89.4815 189.034 92.1804C187.486 94.8651 185.341 96.9389 182.599 98.402C179.872 99.8651 176.747 100.597 173.224 100.597C169.276 100.597 165.81 99.6875 162.827 97.8693C159.858 96.0511 157.543 93.473 155.881 90.1349C154.219 86.7827 153.388 82.8054 153.388 78.2031C153.388 74.723 153.871 71.598 154.837 68.8281C155.803 66.0582 157.159 63.7074 158.906 61.7756C160.668 59.8295 162.734 58.3452 165.107 57.3224C167.493 56.2855 170.099 55.767 172.926 55.767C175.284 55.767 177.479 56.1151 179.51 56.8111C181.555 57.5071 183.374 58.4943 184.964 59.7727C186.57 61.0511 187.898 62.571 188.949 64.3324C190 66.0795 190.71 68.0185 191.08 70.1491H184.325ZM209.01 100.661C205.941 100.661 203.264 99.9574 200.977 98.5511C198.69 97.1449 196.914 95.1776 195.65 92.6491C194.386 90.1207 193.754 87.1662 193.754 83.7855C193.754 80.3906 194.386 77.4219 195.65 74.8793C196.914 72.3366 198.69 70.3622 200.977 68.956C203.264 67.5497 205.941 66.8466 209.01 66.8466C212.078 66.8466 214.755 67.5497 217.042 68.956C219.329 70.3622 221.105 72.3366 222.369 74.8793C223.633 77.4219 224.265 80.3906 224.265 83.7855C224.265 87.1662 223.633 90.1207 222.369 92.6491C221.105 95.1776 219.329 97.1449 217.042 98.5511C214.755 99.9574 212.078 100.661 209.01 100.661ZM209.031 95.3125C211.02 95.3125 212.667 94.7869 213.974 93.7358C215.281 92.6847 216.247 91.2855 216.872 89.5384C217.511 87.7912 217.831 85.8665 217.831 83.7642C217.831 81.6761 217.511 79.7585 216.872 78.0114C216.247 76.25 215.281 74.8366 213.974 73.7713C212.667 72.706 211.02 72.1733 209.031 72.1733C207.028 72.1733 205.366 72.706 204.045 73.7713C202.738 74.8366 201.765 76.25 201.126 78.0114C200.501 79.7585 200.189 81.6761 200.189 83.7642C200.189 85.8665 200.501 87.7912 201.126 89.5384C201.765 91.2855 202.738 92.6847 204.045 93.7358C205.366 94.7869 207.028 95.3125 209.031 95.3125ZM241.162 100.661C238.094 100.661 235.416 99.9574 233.129 98.5511C230.842 97.1449 229.067 95.1776 227.803 92.6491C226.538 90.1207 225.906 87.1662 225.906 83.7855C225.906 80.3906 226.538 77.4219 227.803 74.8793C229.067 72.3366 230.842 70.3622 233.129 68.956C235.416 67.5497 238.094 66.8466 241.162 66.8466C244.23 66.8466 246.908 67.5497 249.195 68.956C251.482 70.3622 253.257 72.3366 254.521 74.8793C255.786 77.4219 256.418 80.3906 256.418 83.7855C256.418 87.1662 255.786 90.1207 254.521 92.6491C253.257 95.1776 251.482 97.1449 249.195 98.5511C246.908 99.9574 244.23 100.661 241.162 100.661ZM241.183 95.3125C243.172 95.3125 244.82 94.7869 246.126 93.7358C247.433 92.6847 248.399 91.2855 249.024 89.5384C249.663 87.7912 249.983 85.8665 249.983 83.7642C249.983 81.6761 249.663 79.7585 249.024 78.0114C248.399 76.25 247.433 74.8366 246.126 73.7713C244.82 72.706 243.172 72.1733 241.183 72.1733C239.18 72.1733 237.518 72.706 236.197 73.7713C234.891 74.8366 233.918 76.25 233.278 78.0114C232.653 79.7585 232.341 81.6761 232.341 83.7642C232.341 85.8665 232.653 87.7912 233.278 89.5384C233.918 91.2855 234.891 92.6847 236.197 93.7358C237.518 94.7869 239.18 95.3125 241.183 95.3125ZM273.25 112.955C270.651 112.955 268.414 112.614 266.539 111.932C264.678 111.25 263.158 110.348 261.979 109.226C260.8 108.104 259.919 106.875 259.337 105.54L264.813 103.281C265.196 103.906 265.708 104.567 266.347 105.263C267 105.973 267.881 106.577 268.989 107.074C270.111 107.571 271.553 107.82 273.314 107.82C275.729 107.82 277.725 107.23 279.301 106.051C280.878 104.886 281.667 103.026 281.667 100.469V94.0341H281.262C280.878 94.7301 280.324 95.5043 279.6 96.3565C278.89 97.2088 277.909 97.9474 276.659 98.5724C275.409 99.1974 273.783 99.5099 271.78 99.5099C269.195 99.5099 266.865 98.9062 264.792 97.6989C262.732 96.4773 261.098 94.6804 259.891 92.3082C258.698 89.9219 258.101 86.9886 258.101 83.5085C258.101 80.0284 258.691 77.0455 259.87 74.5597C261.063 72.0739 262.696 70.1705 264.77 68.8494C266.844 67.5142 269.195 66.8466 271.823 66.8466C273.854 66.8466 275.495 67.1875 276.745 67.8693C277.995 68.5369 278.968 69.3182 279.664 70.2131C280.374 71.108 280.921 71.8963 281.304 72.5781H281.773V67.2727H288.016V100.724C288.016 103.537 287.363 105.845 286.056 107.649C284.749 109.453 282.98 110.788 280.75 111.655C278.534 112.521 276.034 112.955 273.25 112.955ZM273.186 94.2259C275.019 94.2259 276.567 93.7997 277.831 92.9474C279.11 92.081 280.076 90.8452 280.729 89.2401C281.397 87.6207 281.73 85.6818 281.73 83.4233C281.73 81.2216 281.404 79.2827 280.75 77.6065C280.097 75.9304 279.138 74.6236 277.874 73.6861C276.61 72.7344 275.047 72.2585 273.186 72.2585C271.269 72.2585 269.671 72.7557 268.392 73.75C267.114 74.7301 266.148 76.0653 265.495 77.7557C264.855 79.446 264.536 81.3352 264.536 83.4233C264.536 85.5682 264.863 87.4503 265.516 89.0696C266.169 90.6889 267.135 91.9531 268.414 92.8622C269.706 93.7713 271.297 94.2259 273.186 94.2259ZM298.931 56.3636V100H292.56V56.3636H298.931ZM317.607 100.661C314.382 100.661 311.605 99.9716 309.276 98.5938C306.96 97.2017 305.17 95.2486 303.906 92.7344C302.656 90.206 302.031 87.2443 302.031 83.8494C302.031 80.4972 302.656 77.5426 303.906 74.9858C305.17 72.429 306.932 70.4332 309.19 68.9986C311.463 67.5639 314.119 66.8466 317.159 66.8466C319.006 66.8466 320.795 67.152 322.528 67.7628C324.261 68.3736 325.817 69.3324 327.195 70.6392C328.572 71.946 329.659 73.6435 330.455 75.7315C331.25 77.8054 331.648 80.3267 331.648 83.2955V85.554H305.632V80.7812H325.405C325.405 79.1051 325.064 77.6207 324.382 76.3281C323.7 75.0213 322.741 73.9915 321.506 73.2386C320.284 72.4858 318.849 72.1094 317.202 72.1094C315.412 72.1094 313.849 72.5497 312.514 73.4304C311.193 74.2969 310.17 75.4332 309.446 76.8395C308.736 78.2315 308.381 79.7443 308.381 81.3778V85.1065C308.381 87.294 308.764 89.1548 309.531 90.6889C310.312 92.223 311.399 93.3949 312.791 94.2045C314.183 95 315.81 95.3977 317.67 95.3977C318.878 95.3977 319.979 95.2273 320.973 94.8864C321.967 94.5312 322.827 94.0057 323.551 93.3097C324.276 92.6136 324.83 91.7543 325.213 90.7315L331.243 91.8182C330.76 93.5937 329.893 95.1491 328.643 96.4844C327.408 97.8054 325.852 98.8352 323.977 99.5739C322.116 100.298 319.993 100.661 317.607 100.661ZM347.107 100V56.3636H362.661C366.055 56.3636 368.868 56.9815 371.098 58.2173C373.328 59.4531 374.997 61.1435 376.105 63.2884C377.213 65.419 377.767 67.8196 377.767 70.4901C377.767 73.1747 377.206 75.5895 376.084 77.7344C374.976 79.8651 373.3 81.5554 371.055 82.8054C368.825 84.0412 366.02 84.6591 362.639 84.6591H351.943V79.0767H362.043C364.188 79.0767 365.928 78.7074 367.263 77.9688C368.598 77.2159 369.578 76.1932 370.203 74.9006C370.828 73.608 371.141 72.1378 371.141 70.4901C371.141 68.8423 370.828 67.3793 370.203 66.1009C369.578 64.8224 368.591 63.821 367.241 63.0966C365.906 62.3722 364.145 62.0099 361.957 62.0099H353.69V100H347.107ZM387.345 56.3636V100H380.974V56.3636H387.345ZM401.44 100.724C399.366 100.724 397.491 100.341 395.815 99.5739C394.138 98.7926 392.81 97.6634 391.83 96.1861C390.864 94.7088 390.381 92.8977 390.381 90.7528C390.381 88.9062 390.737 87.3864 391.447 86.1932C392.157 85 393.116 84.0554 394.323 83.3594C395.531 82.6634 396.88 82.1378 398.371 81.7827C399.863 81.4276 401.383 81.1577 402.931 80.973C404.891 80.7457 406.482 80.5611 407.704 80.419C408.925 80.2628 409.813 80.0142 410.367 79.6733C410.921 79.3324 411.198 78.7784 411.198 78.0114V77.8622C411.198 76.0014 410.673 74.5597 409.621 73.5369C408.585 72.5142 407.036 72.0028 404.977 72.0028C402.832 72.0028 401.141 72.4787 399.906 73.4304C398.684 74.3679 397.839 75.4119 397.37 76.5625L391.383 75.1989C392.093 73.2102 393.13 71.6051 394.494 70.3835C395.871 69.1477 397.455 68.2528 399.245 67.6989C401.035 67.1307 402.917 66.8466 404.891 66.8466C406.198 66.8466 407.583 67.0028 409.046 67.3153C410.523 67.6136 411.901 68.1676 413.18 68.9773C414.472 69.7869 415.531 70.9446 416.354 72.4503C417.178 73.9418 417.59 75.8807 417.59 78.267V100H411.369V95.5256H411.113C410.701 96.3494 410.083 97.1591 409.259 97.9545C408.435 98.75 407.377 99.4105 406.085 99.9361C404.792 100.462 403.244 100.724 401.44 100.724ZM402.825 95.6108C404.586 95.6108 406.092 95.2628 407.342 94.5668C408.606 93.8707 409.565 92.9616 410.218 91.8395C410.886 90.7031 411.219 89.4886 411.219 88.196V83.9773C410.992 84.2045 410.552 84.4176 409.898 84.6165C409.259 84.8011 408.528 84.9645 407.704 85.1065C406.88 85.2344 406.077 85.3551 405.296 85.4688C404.515 85.5682 403.862 85.6534 403.336 85.7244C402.1 85.8807 400.971 86.1435 399.948 86.5128C398.94 86.8821 398.13 87.4148 397.519 88.1108C396.923 88.7926 396.624 89.7017 396.624 90.8381C396.624 92.4148 397.207 93.608 398.371 94.4176C399.536 95.2131 401.021 95.6108 402.825 95.6108ZM424.931 112.273C423.979 112.273 423.113 112.195 422.331 112.038C421.55 111.896 420.968 111.74 420.584 111.57L422.118 106.349C423.283 106.662 424.32 106.797 425.229 106.754C426.138 106.712 426.941 106.371 427.637 105.732C428.347 105.092 428.972 104.048 429.512 102.599L430.3 100.426L418.326 67.2727H425.144L433.432 92.6705H433.773L442.061 67.2727H448.901L435.414 104.368C434.789 106.072 433.993 107.514 433.027 108.693C432.061 109.886 430.911 110.781 429.576 111.378C428.24 111.974 426.692 112.273 424.931 112.273Z" fill="white"/>
<path d="M76.2254 67.5089L39.4364 107.385L38.3166 108.611C37.6204 107.582 37.1512 106.356 37.0454 104.994C37.0151 104.752 37 104.51 37 104.268V30.735C37 29.0858 37.4994 27.6027 38.3166 26.3916L76.2254 67.5089Z" fill="#3FD2FF"/>
<path d="M92.7658 49.561L76.2252 67.5092L38.3164 26.3918C40.4653 23.2443 44.8539 21.8976 48.5768 24.0465L92.7658 49.561Z" fill="#5BEF77"/>
<path d="M116.102 67.7209C116.041 70.2332 114.755 72.7452 112.258 74.1827L92.766 85.4418L76.2253 67.5091L92.766 49.561L105.024 56.6437L112.258 60.8201C114.906 62.3489 116.192 65.0423 116.102 67.7209Z" fill="#FDCC02"/>
<path d="M38.3196 108.609C40.4695 111.758 44.8553 113.1 48.5713 110.955L92.7598 85.4426L76.219 67.502L38.3196 108.609Z" fill="#F43D44"/>
<path opacity="0.2" d="M115.93 65.8394C115.503 63.8373 114.281 61.9881 112.258 60.82L105.024 56.6436L92.766 49.561L48.5769 24.0465C44.8541 21.8976 40.4654 23.2443 38.3166 26.3918C37.4994 27.6028 37 29.0859 37 30.7352V73.1006C43.3762 73.6419 49.9026 73.9256 56.5471 73.9256C64.8881 73.9256 73.0347 73.466 80.9383 72.621L76.2403 67.5254L80.9403 72.621C93.3182 71.298 105.065 68.9862 115.93 65.8394Z" fill="white"/>
</svg>
