<svg width="155" height="156" viewBox="0 0 155 156" fill="none" xmlns="http://www.w3.org/2000/svg">
  <mask id="mask0_28_343" style="mask-type:luminance" maskUnits="userSpaceOnUse" x="86" y="0" width="69" height="156">
    <path d="M146.558 42.6793C139.999 29.3307 130.185 18.5641 117.396 10.6634C108.498 5.16391 98.76 1.65249 88.463 0.206613C88.0308 0.154974 87.0901 0.0516982 86.2257 0.0258789V13.1679L86.4545 13.1937C102.904 15.8273 116.481 23.5472 126.854 36.147C137.253 48.7985 142.261 63.6962 141.727 80.4271C140.685 112.495 117.981 132.195 102.828 137.72C102.752 137.72 102.828 137.72 102.752 137.72C102.752 135.887 102.701 123.235 102.65 119.621C103.565 119.13 104.506 118.433 104.506 118.433C110.074 114.612 114.65 109.809 118.108 104.155C125.964 91.3228 127.744 77.5353 123.371 63.1798C119.608 50.864 111.828 41.3367 100.235 34.8302C95.9633 32.4291 91.4886 30.8283 86.5054 29.8988L86.2257 29.8471V42.7568L87.0901 43.0924C87.5732 43.2732 88.0308 43.4281 88.4885 43.6088C100.514 47.9464 108.294 56.1828 111.574 68.0597C115.362 81.7697 112.082 93.9564 101.887 104.258C98.2006 107.976 93.6496 110.739 88.2851 112.443C87.9291 112.572 87.624 112.65 87.3698 112.753L86.1494 113.166C86.1494 113.166 86.1494 115.231 86.1494 115.49C86.1494 115.515 86.1494 155.096 86.1494 155.742V156H86.4037C86.6325 156 86.8359 155.974 87.0138 155.948C87.3698 155.923 87.6495 155.897 87.9291 155.871C89.7343 155.613 91.514 155.303 93.2683 154.941C102.269 153.057 110.633 149.649 118.261 144.795C152.355 123.106 164.508 79.2136 146.533 42.7051L146.558 42.6793Z" fill="white"/>
  </mask>
  <g transform="rotate(12 77.5 77.5)">
    <g mask="url(#mask0_28_343)">
      <mask id="mask1_28_343" style="mask-type:luminance" maskUnits="userSpaceOnUse" x="73" y="-13" width="95" height="182">
        <path d="M167.559 -12.9095H73.4373V168.884H167.559V-12.9095Z" fill="white"/>
      </mask>
      <g mask="url(#mask1_28_343)">
        <rect x="72.5474" y="-13.7357" width="95.1893" height="183.42" fill="#F5AE16"/>
      </g>
    </g>
    <mask id="mask2_28_343" style="mask-type:luminance" maskUnits="userSpaceOnUse" x="0" y="0" width="69" height="156">
      <path d="M8.27426 113.321C14.8338 126.669 24.6476 137.436 37.4362 145.337C46.3347 150.836 56.0723 154.348 66.3693 155.793C66.8015 155.845 67.7422 155.948 68.6066 155.974V142.832L68.3778 142.806C51.9281 140.173 38.3515 132.453 27.9783 119.853C17.5796 107.202 12.571 92.3039 13.1049 75.573C14.1473 43.5055 36.8514 23.8054 52.0044 18.28C52.0807 18.28 52.0044 18.28 52.0807 18.28C52.0807 20.1132 52.1315 32.7646 52.1824 36.3793C51.2671 36.8699 50.3264 37.567 50.3264 37.567C44.7584 41.3883 40.182 46.1907 36.7243 51.8451C28.8681 64.6773 27.0884 78.4647 31.4614 92.8203C35.2242 105.136 43.0041 114.663 54.5977 121.17C58.869 123.571 63.3437 125.172 68.3269 126.101L68.6066 126.153V113.243L67.7422 112.908C67.2591 112.727 66.8015 112.572 66.3438 112.391C54.318 108.054 46.5381 99.8173 43.2584 87.9404C39.4701 74.2304 42.7499 62.0437 52.9451 51.7418C56.6317 48.0238 61.1827 45.2612 66.5472 43.5571C66.9032 43.428 67.2083 43.3505 67.4625 43.2473L68.6829 42.8342C68.6829 42.8342 68.6829 40.7686 68.6829 40.5104C68.6829 40.4846 68.6829 0.903674 68.6829 0.258192V0H68.4286C68.1998 0 67.9964 0.0258192 67.8185 0.0516385C67.4625 0.0774577 67.1828 0.103278 66.9032 0.129097C65.098 0.387289 63.3183 0.69712 61.564 1.05859C52.5637 2.9434 44.1991 6.35154 36.5717 11.2056C2.45205 32.9196 -9.70087 76.8123 8.27426 113.321Z" fill="white"/>
    </mask>
    <g mask="url(#mask2_28_343)">
      <mask id="mask3_28_343" style="mask-type:luminance" maskUnits="userSpaceOnUse" x="-13" y="-13" width="95" height="182">
        <path d="M81.3698 -12.9097H-12.7263V168.884H81.3698V-12.9097Z" fill="white"/>
      </mask>
      <g mask="url(#mask3_28_343)">
        <rect x="-12.8789" y="-13.7358" width="95.1893" height="183.42" fill="#F5AE16"/>
      </g>
    </g>
    <path d="M77.4542 96.3321C87.4237 96.3321 95.5056 88.1247 95.5056 78.0004C95.5056 67.8761 87.4237 59.6687 77.4542 59.6687C67.4847 59.6687 59.4028 67.8761 59.4028 78.0004C59.4028 88.1247 67.4847 96.3321 77.4542 96.3321Z" fill="#F5AE16"/>
  </g>
</svg>

