<svg width="485" height="135" viewBox="0 0 485 135" fill="none" xmlns="http://www.w3.org/2000/svg">
<rect x="1.5" y="1.5" width="470" height="132" rx="8.5" fill="black" stroke="#999999" stroke-width="3"/>
<path d="M104.657 89.5651C103.549 92.2481 102.182 94.8064 100.574 97.2005C98.4273 100.388 96.6641 102.591 95.3127 103.818C93.2136 105.821 90.9586 106.852 88.5476 106.91C86.8204 106.91 84.7333 106.399 82.3024 105.36C79.8634 104.325 77.6244 103.818 75.5733 103.818C73.4262 103.818 71.1233 104.325 68.6563 105.36C66.1934 106.399 64.2023 106.943 62.679 106.993C60.372 107.097 58.065 106.041 55.766 103.818C54.2986 102.487 52.4634 100.201 50.2604 96.9677C47.9014 93.522 45.9623 89.5111 44.4429 84.9515C42.8156 80.0178 42 75.2462 42 70.6242C42 65.3331 43.0995 60.7652 45.3026 56.9412C46.9688 53.9381 49.351 51.4316 52.2195 49.6633C55.0482 47.8996 58.2772 46.95 61.5754 46.9118C63.4146 46.9118 65.8256 47.502 68.8123 48.6658C71.799 49.8296 73.7181 50.4198 74.5538 50.4198C75.1855 50.4198 77.3086 49.7257 80.923 48.3499C84.3335 47.0739 87.2122 46.546 89.5712 46.7538C95.9684 47.29 100.77 49.9086 103.965 54.6303C98.2474 58.2339 95.4206 63.2757 95.4766 69.7472C95.5246 74.789 97.2878 78.9828 100.742 82.3121C102.27 83.8314 104.051 85.0472 106 85.8991C105.576 87.1751 105.128 88.393 104.657 89.5651ZM89.995 29.5836C89.995 33.5322 88.6036 37.2231 85.8408 40.6356C82.4983 44.6922 78.46 47.0406 74.082 46.6707C74.0247 46.1742 73.9967 45.6745 73.998 45.1744C73.998 41.3796 75.5813 37.3229 78.4081 34.0019C79.8155 32.3227 81.6067 30.922 83.7777 29.808C85.9448 28.7108 87.9919 28.1039 89.919 28C89.971 28.532 89.995 29.0599 89.995 29.5836Z" fill="white"/>
<path d="M157.46 48H150.397V26.1818H157.684C159.822 26.1818 161.658 26.6186 163.192 27.4922C164.726 28.3587 165.901 29.6051 166.718 31.2315C167.542 32.8509 167.954 34.7933 167.954 37.0589C167.954 39.3317 167.538 41.2848 166.707 42.9183C165.884 44.5518 164.69 45.8089 163.128 46.6896C161.565 47.5632 159.676 48 157.46 48ZM153.689 45.1236H157.279C158.941 45.1236 160.322 44.8111 161.423 44.1861C162.524 43.554 163.348 42.6413 163.895 41.4482C164.442 40.2479 164.715 38.7848 164.715 37.0589C164.715 35.3473 164.442 33.8949 163.895 32.7017C163.355 31.5085 162.549 30.603 161.477 29.9851C160.404 29.3672 159.072 29.0582 157.482 29.0582H153.689V45.1236ZM177.844 48.3303C176.232 48.3303 174.844 47.9858 173.679 47.2969C172.521 46.6009 171.626 45.6243 170.994 44.3672C170.369 43.103 170.057 41.6222 170.057 39.9247C170.057 38.2486 170.369 36.7713 170.994 35.4929C171.626 34.2145 172.507 33.2166 173.636 32.4993C174.773 31.782 176.101 31.4233 177.621 31.4233C178.544 31.4233 179.439 31.576 180.305 31.8814C181.172 32.1868 181.949 32.6662 182.638 33.3196C183.327 33.973 183.871 34.8217 184.268 35.8658C184.666 36.9027 184.865 38.1634 184.865 39.6477V40.777H171.857V38.3906H181.743C181.743 37.5526 181.573 36.8104 181.232 36.1641C180.891 35.5107 180.412 34.9957 179.794 34.6193C179.183 34.2429 178.466 34.0547 177.642 34.0547C176.747 34.0547 175.966 34.2749 175.298 34.7152C174.638 35.1484 174.126 35.7166 173.764 36.4197C173.409 37.1158 173.231 37.8722 173.231 38.6889V40.5533C173.231 41.647 173.423 42.5774 173.807 43.3445C174.197 44.1115 174.741 44.6974 175.437 45.1023C176.133 45.5 176.946 45.6989 177.876 45.6989C178.48 45.6989 179.03 45.6136 179.528 45.4432C180.025 45.2656 180.454 45.0028 180.817 44.6548C181.179 44.3068 181.456 43.8771 181.648 43.3658L184.662 43.9091C184.421 44.7969 183.988 45.5746 183.363 46.2422C182.745 46.9027 181.967 47.4176 181.03 47.7869C180.099 48.1491 179.037 48.3303 177.844 48.3303ZM199.661 35.6314L196.774 36.1428C196.653 35.7734 196.462 35.4219 196.199 35.0881C195.943 34.7543 195.595 34.4808 195.155 34.2678C194.714 34.0547 194.164 33.9482 193.504 33.9482C192.602 33.9482 191.849 34.1506 191.245 34.5554C190.641 34.9531 190.339 35.468 190.339 36.1001C190.339 36.647 190.542 37.0874 190.947 37.4212C191.352 37.755 192.005 38.0284 192.907 38.2415L195.506 38.8381C197.012 39.1861 198.134 39.7223 198.873 40.4467C199.612 41.1712 199.981 42.1122 199.981 43.2699C199.981 44.25 199.697 45.1236 199.129 45.8906C198.567 46.6506 197.783 47.2472 196.774 47.6804C195.773 48.1136 194.612 48.3303 193.29 48.3303C191.458 48.3303 189.963 47.9396 188.805 47.1584C187.648 46.37 186.938 45.2514 186.675 43.8026L189.754 43.3338C189.945 44.1364 190.339 44.7436 190.936 45.1555C191.533 45.5604 192.31 45.7628 193.269 45.7628C194.313 45.7628 195.148 45.5462 195.773 45.1129C196.398 44.6726 196.71 44.1364 196.71 43.5043C196.71 42.9929 196.518 42.5632 196.135 42.2152C195.759 41.8672 195.18 41.6044 194.398 41.4268L191.629 40.8196C190.102 40.4716 188.972 39.9176 188.241 39.1577C187.516 38.3977 187.154 37.4354 187.154 36.2706C187.154 35.3047 187.424 34.4595 187.964 33.7351C188.504 33.0107 189.249 32.446 190.201 32.0412C191.153 31.6293 192.243 31.4233 193.472 31.4233C195.24 31.4233 196.632 31.8068 197.648 32.5739C198.663 33.3338 199.335 34.353 199.661 35.6314ZM209.376 48.3303C207.792 48.3303 206.428 47.9716 205.285 47.2543C204.149 46.5298 203.275 45.532 202.664 44.2607C202.053 42.9893 201.748 41.5334 201.748 39.8928C201.748 38.2308 202.061 36.7642 202.686 35.4929C203.311 34.2145 204.191 33.2166 205.328 32.4993C206.464 31.782 207.803 31.4233 209.344 31.4233C210.587 31.4233 211.695 31.6541 212.668 32.1158C213.641 32.5703 214.426 33.2095 215.022 34.0334C215.626 34.8572 215.985 35.8196 216.098 36.9205H212.998C212.828 36.1534 212.437 35.4929 211.826 34.9389C211.222 34.3849 210.413 34.108 209.397 34.108C208.509 34.108 207.732 34.3423 207.064 34.8111C206.404 35.2727 205.889 35.9332 205.519 36.7926C205.15 37.6449 204.965 38.6534 204.965 39.8182C204.965 41.0114 205.146 42.0412 205.509 42.9077C205.871 43.7741 206.382 44.4453 207.043 44.9212C207.71 45.397 208.495 45.6349 209.397 45.6349C210.001 45.6349 210.548 45.5249 211.038 45.3047C211.535 45.0774 211.95 44.7543 212.284 44.3352C212.625 43.9162 212.863 43.4119 212.998 42.8224H216.098C215.985 43.8807 215.64 44.8253 215.065 45.6562C214.49 46.4872 213.719 47.1406 212.753 47.6165C211.794 48.0923 210.669 48.3303 209.376 48.3303ZM223.267 48.3622C222.23 48.3622 221.292 48.1705 220.454 47.7869C219.616 47.3963 218.952 46.8317 218.462 46.093C217.979 45.3544 217.738 44.4489 217.738 43.3764C217.738 42.4531 217.915 41.6932 218.27 41.0966C218.625 40.5 219.105 40.0277 219.708 39.6797C220.312 39.3317 220.987 39.0689 221.733 38.8913C222.478 38.7138 223.238 38.5788 224.012 38.4865C224.993 38.3729 225.788 38.2805 226.399 38.2095C227.01 38.1314 227.453 38.0071 227.73 37.8366C228.007 37.6662 228.146 37.3892 228.146 37.0057V36.9311C228.146 36.0007 227.883 35.2798 227.358 34.7685C226.839 34.2571 226.065 34.0014 225.035 34.0014C223.963 34.0014 223.118 34.2393 222.5 34.7152C221.889 35.1839 221.466 35.706 221.232 36.2812L218.238 35.5994C218.593 34.6051 219.112 33.8026 219.794 33.1918C220.483 32.5739 221.275 32.1264 222.169 31.8494C223.064 31.5653 224.005 31.4233 224.993 31.4233C225.646 31.4233 226.338 31.5014 227.07 31.6577C227.809 31.8068 228.498 32.0838 229.137 32.4886C229.783 32.8935 230.312 33.4723 230.724 34.2251C231.136 34.9709 231.342 35.9403 231.342 37.1335V48H228.231V45.7628H228.103C227.897 46.1747 227.588 46.5795 227.176 46.9773C226.765 47.375 226.235 47.7053 225.589 47.968C224.943 48.2308 224.169 48.3622 223.267 48.3622ZM223.959 45.8054C224.84 45.8054 225.593 45.6314 226.218 45.2834C226.85 44.9354 227.329 44.4808 227.656 43.9197C227.99 43.3516 228.157 42.7443 228.157 42.098V39.9886C228.043 40.1023 227.823 40.2088 227.496 40.3082C227.176 40.4006 226.811 40.4822 226.399 40.5533C225.987 40.6172 225.586 40.6776 225.195 40.7344C224.804 40.7841 224.478 40.8267 224.215 40.8622C223.597 40.9403 223.032 41.0717 222.521 41.2564C222.017 41.4411 221.612 41.7074 221.306 42.0554C221.008 42.3963 220.859 42.8509 220.859 43.419C220.859 44.2074 221.15 44.804 221.733 45.2088C222.315 45.6065 223.057 45.8054 223.959 45.8054ZM223.842 29.4524L226.335 24.5412H229.691L226.388 29.4524H223.842ZM234.585 48V31.6364H237.664V34.2358H237.834C238.132 33.3551 238.658 32.6626 239.411 32.1584C240.171 31.647 241.03 31.3913 241.989 31.3913C242.188 31.3913 242.422 31.3984 242.692 31.4126C242.969 31.4268 243.186 31.4446 243.342 31.4659V34.5128C243.214 34.4773 242.987 34.4382 242.66 34.3956C242.333 34.3459 242.007 34.321 241.68 34.321C240.927 34.321 240.256 34.4808 239.666 34.8004C239.084 35.1129 238.622 35.5497 238.281 36.1108C237.941 36.6648 237.77 37.2969 237.77 38.0071V48H234.585ZM251.373 54.4773C250.074 54.4773 248.955 54.3068 248.017 53.9659C247.087 53.625 246.327 53.174 245.738 52.6129C245.148 52.0518 244.708 51.4375 244.417 50.7699L247.154 49.6406C247.346 49.9531 247.602 50.2834 247.922 50.6314C248.248 50.9865 248.689 51.2884 249.243 51.5369C249.804 51.7855 250.525 51.9098 251.405 51.9098C252.613 51.9098 253.61 51.6151 254.399 51.0256C255.187 50.4432 255.581 49.5128 255.581 48.2344V45.017H255.379C255.187 45.3651 254.91 45.7521 254.548 46.1783C254.193 46.6044 253.703 46.9737 253.078 47.2862C252.453 47.5987 251.64 47.755 250.638 47.755C249.346 47.755 248.181 47.4531 247.144 46.8494C246.114 46.2386 245.297 45.3402 244.694 44.1541C244.097 42.9609 243.799 41.4943 243.799 39.7543C243.799 38.0142 244.093 36.5227 244.683 35.2798C245.279 34.0369 246.096 33.0852 247.133 32.4247C248.17 31.7571 249.346 31.4233 250.659 31.4233C251.675 31.4233 252.495 31.5938 253.12 31.9347C253.745 32.2685 254.232 32.6591 254.58 33.1065C254.935 33.554 255.208 33.9482 255.4 34.2891H255.635V31.6364H258.756V48.3622C258.756 49.7685 258.429 50.9226 257.776 51.8246C257.123 52.7266 256.238 53.3942 255.123 53.8274C254.015 54.2607 252.765 54.4773 251.373 54.4773ZM251.341 45.1129C252.257 45.1129 253.032 44.8999 253.664 44.4737C254.303 44.0405 254.786 43.4226 255.113 42.62C255.446 41.8104 255.613 40.8409 255.613 39.7116C255.613 38.6108 255.45 37.6413 255.123 36.8033C254.797 35.9652 254.317 35.3118 253.685 34.843C253.053 34.3672 252.272 34.1293 251.341 34.1293C250.382 34.1293 249.583 34.3778 248.944 34.875C248.305 35.3651 247.822 36.0327 247.495 36.8778C247.176 37.723 247.016 38.6676 247.016 39.7116C247.016 40.7841 247.179 41.7251 247.506 42.5348C247.833 43.3445 248.316 43.9766 248.955 44.4311C249.601 44.8857 250.397 45.1129 251.341 45.1129ZM266.79 48.3622C265.753 48.3622 264.816 48.1705 263.978 47.7869C263.14 47.3963 262.475 46.8317 261.985 46.093C261.502 45.3544 261.261 44.4489 261.261 43.3764C261.261 42.4531 261.439 41.6932 261.794 41.0966C262.149 40.5 262.628 40.0277 263.232 39.6797C263.836 39.3317 264.51 39.0689 265.256 38.8913C266.002 38.7138 266.762 38.5788 267.536 38.4865C268.516 38.3729 269.311 38.2805 269.922 38.2095C270.533 38.1314 270.977 38.0071 271.254 37.8366C271.531 37.6662 271.669 37.3892 271.669 37.0057V36.9311C271.669 36.0007 271.407 35.2798 270.881 34.7685C270.363 34.2571 269.588 34.0014 268.559 34.0014C267.486 34.0014 266.641 34.2393 266.023 34.7152C265.412 35.1839 264.99 35.706 264.755 36.2812L261.762 35.5994C262.117 34.6051 262.635 33.8026 263.317 33.1918C264.006 32.5739 264.798 32.1264 265.693 31.8494C266.588 31.5653 267.529 31.4233 268.516 31.4233C269.169 31.4233 269.862 31.5014 270.593 31.6577C271.332 31.8068 272.021 32.0838 272.66 32.4886C273.306 32.8935 273.836 33.4723 274.248 34.2251C274.659 34.9709 274.865 35.9403 274.865 37.1335V48H271.755V45.7628H271.627C271.421 46.1747 271.112 46.5795 270.7 46.9773C270.288 47.375 269.759 47.7053 269.113 47.968C268.466 48.2308 267.692 48.3622 266.79 48.3622ZM267.483 45.8054C268.363 45.8054 269.116 45.6314 269.741 45.2834C270.373 44.9354 270.853 44.4808 271.179 43.9197C271.513 43.3516 271.68 42.7443 271.68 42.098V39.9886C271.566 40.1023 271.346 40.2088 271.02 40.3082C270.7 40.4006 270.334 40.4822 269.922 40.5533C269.51 40.6172 269.109 40.6776 268.718 40.7344C268.328 40.7841 268.001 40.8267 267.738 40.8622C267.12 40.9403 266.556 41.0717 266.044 41.2564C265.54 41.4411 265.135 41.7074 264.83 42.0554C264.532 42.3963 264.382 42.8509 264.382 43.419C264.382 44.2074 264.674 44.804 265.256 45.2088C265.838 45.6065 266.581 45.8054 267.483 45.8054ZM281.294 26.1818V48H278.108V26.1818H281.294ZM289.341 48.3622C288.304 48.3622 287.366 48.1705 286.528 47.7869C285.69 47.3963 285.026 46.8317 284.536 46.093C284.053 45.3544 283.812 44.4489 283.812 43.3764C283.812 42.4531 283.989 41.6932 284.344 41.0966C284.7 40.5 285.179 40.0277 285.783 39.6797C286.386 39.3317 287.061 39.0689 287.807 38.8913C288.553 38.7138 289.313 38.5788 290.087 38.4865C291.067 38.3729 291.862 38.2805 292.473 38.2095C293.084 38.1314 293.528 38.0071 293.805 37.8366C294.082 37.6662 294.22 37.3892 294.22 37.0057V36.9311C294.22 36.0007 293.957 35.2798 293.432 34.7685C292.913 34.2571 292.139 34.0014 291.109 34.0014C290.037 34.0014 289.192 34.2393 288.574 34.7152C287.963 35.1839 287.54 35.706 287.306 36.2812L284.312 35.5994C284.668 34.6051 285.186 33.8026 285.868 33.1918C286.557 32.5739 287.349 32.1264 288.244 31.8494C289.138 31.5653 290.08 31.4233 291.067 31.4233C291.72 31.4233 292.413 31.5014 293.144 31.6577C293.883 31.8068 294.572 32.0838 295.211 32.4886C295.857 32.8935 296.386 33.4723 296.798 34.2251C297.21 34.9709 297.416 35.9403 297.416 37.1335V48H294.305V45.7628H294.178C293.972 46.1747 293.663 46.5795 293.251 46.9773C292.839 47.375 292.31 47.7053 291.663 47.968C291.017 48.2308 290.243 48.3622 289.341 48.3622ZM290.033 45.8054C290.914 45.8054 291.667 45.6314 292.292 45.2834C292.924 44.9354 293.403 44.4808 293.73 43.9197C294.064 43.3516 294.231 42.7443 294.231 42.098V39.9886C294.117 40.1023 293.897 40.2088 293.57 40.3082C293.251 40.4006 292.885 40.4822 292.473 40.5533C292.061 40.6172 291.66 40.6776 291.269 40.7344C290.879 40.7841 290.552 40.8267 290.289 40.8622C289.671 40.9403 289.107 41.0717 288.595 41.2564C288.091 41.4411 287.686 41.7074 287.381 42.0554C287.082 42.3963 286.933 42.8509 286.933 43.419C286.933 44.2074 287.224 44.804 287.807 45.2088C288.389 45.6065 289.131 45.8054 290.033 45.8054ZM314.651 48.3303C313.039 48.3303 311.65 47.9858 310.485 47.2969C309.328 46.6009 308.433 45.6243 307.801 44.3672C307.176 43.103 306.863 41.6222 306.863 39.9247C306.863 38.2486 307.176 36.7713 307.801 35.4929C308.433 34.2145 309.314 33.2166 310.443 32.4993C311.579 31.782 312.907 31.4233 314.427 31.4233C315.35 31.4233 316.245 31.576 317.112 31.8814C317.978 32.1868 318.756 32.6662 319.445 33.3196C320.134 33.973 320.677 34.8217 321.075 35.8658C321.473 36.9027 321.672 38.1634 321.672 39.6477V40.777H308.664V38.3906H318.55C318.55 37.5526 318.38 36.8104 318.039 36.1641C317.698 35.5107 317.218 34.9957 316.6 34.6193C315.99 34.2429 315.272 34.0547 314.449 34.0547C313.554 34.0547 312.772 34.2749 312.105 34.7152C311.444 35.1484 310.933 35.7166 310.571 36.4197C310.216 37.1158 310.038 37.8722 310.038 38.6889V40.5533C310.038 41.647 310.23 42.5774 310.613 43.3445C311.004 44.1115 311.547 44.6974 312.243 45.1023C312.939 45.5 313.752 45.6989 314.683 45.6989C315.287 45.6989 315.837 45.6136 316.334 45.4432C316.831 45.2656 317.261 45.0028 317.623 44.6548C317.985 44.3068 318.262 43.8771 318.454 43.3658L321.469 43.9091C321.228 44.7969 320.794 45.5746 320.169 46.2422C319.551 46.9027 318.774 47.4176 317.836 47.7869C316.906 48.1491 315.844 48.3303 314.651 48.3303ZM327.391 38.2841V48H324.206V31.6364H327.263V34.2997H327.466C327.842 33.4332 328.432 32.7372 329.234 32.2116C330.044 31.6861 331.063 31.4233 332.292 31.4233C333.407 31.4233 334.383 31.6577 335.221 32.1264C336.059 32.5881 336.709 33.277 337.171 34.1932C337.633 35.1094 337.863 36.2422 337.863 37.5916V48H334.678V37.9751C334.678 36.7891 334.369 35.8622 333.751 35.1946C333.133 34.5199 332.285 34.1825 331.205 34.1825C330.466 34.1825 329.809 34.3423 329.234 34.6619C328.666 34.9815 328.215 35.4503 327.881 36.0682C327.555 36.679 327.391 37.4176 327.391 38.2841ZM156.48 103H149.491L165.195 59.3636H172.801L188.504 103H181.516L169.179 67.2898H168.838L156.48 103ZM157.652 85.9119H180.322V91.4517H157.652V85.9119ZM192.294 115.273V70.2727H198.516V75.5781H199.049C199.418 74.8963 199.951 74.108 200.647 73.2131C201.343 72.3182 202.309 71.5369 203.544 70.8693C204.78 70.1875 206.414 69.8466 208.445 69.8466C211.087 69.8466 213.445 70.5142 215.519 71.8494C217.593 73.1847 219.219 75.1094 220.398 77.6236C221.591 80.1378 222.188 83.1634 222.188 86.7003C222.188 90.2372 221.598 93.2699 220.419 95.7983C219.24 98.3125 217.621 100.251 215.561 101.615C213.502 102.964 211.151 103.639 208.509 103.639C206.52 103.639 204.894 103.305 203.63 102.638C202.38 101.97 201.4 101.189 200.689 100.294C199.979 99.3991 199.432 98.6037 199.049 97.9077H198.665V115.273H192.294ZM198.537 86.6364C198.537 88.9375 198.871 90.9545 199.539 92.6875C200.206 94.4205 201.172 95.777 202.436 96.7571C203.701 97.723 205.249 98.206 207.081 98.206C208.985 98.206 210.576 97.7017 211.854 96.6932C213.132 95.6705 214.098 94.2855 214.752 92.5384C215.419 90.7912 215.753 88.8239 215.753 86.6364C215.753 84.4773 215.426 82.5384 214.773 80.8196C214.134 79.1009 213.168 77.7443 211.875 76.75C210.597 75.7557 208.999 75.2585 207.081 75.2585C205.235 75.2585 203.672 75.7344 202.394 76.6861C201.13 77.6378 200.171 78.9659 199.517 80.6705C198.864 82.375 198.537 84.3636 198.537 86.6364ZM227.326 115.273V70.2727H233.547V75.5781H234.08C234.449 74.8963 234.982 74.108 235.678 73.2131C236.374 72.3182 237.34 71.5369 238.576 70.8693C239.811 70.1875 241.445 69.8466 243.476 69.8466C246.118 69.8466 248.476 70.5142 250.55 71.8494C252.624 73.1847 254.25 75.1094 255.429 77.6236C256.623 80.1378 257.219 83.1634 257.219 86.7003C257.219 90.2372 256.63 93.2699 255.451 95.7983C254.272 98.3125 252.652 100.251 250.593 101.615C248.533 102.964 246.182 103.639 243.54 103.639C241.551 103.639 239.925 103.305 238.661 102.638C237.411 101.97 236.431 101.189 235.721 100.294C235.01 99.3991 234.463 98.6037 234.08 97.9077H233.696V115.273H227.326ZM233.569 86.6364C233.569 88.9375 233.902 90.9545 234.57 92.6875C235.238 94.4205 236.203 95.777 237.468 96.7571C238.732 97.723 240.28 98.206 242.113 98.206C244.016 98.206 245.607 97.7017 246.885 96.6932C248.164 95.6705 249.13 94.2855 249.783 92.5384C250.451 90.7912 250.784 88.8239 250.784 86.6364C250.784 84.4773 250.458 82.5384 249.804 80.8196C249.165 79.1009 248.199 77.7443 246.907 76.75C245.628 75.7557 244.03 75.2585 242.113 75.2585C240.266 75.2585 238.703 75.7344 237.425 76.6861C236.161 77.6378 235.202 78.9659 234.549 80.6705C233.895 82.375 233.569 84.3636 233.569 86.6364ZM300.547 70.8267C300.32 68.8097 299.382 67.2472 297.734 66.1392C296.087 65.017 294.013 64.456 291.513 64.456C289.723 64.456 288.175 64.7401 286.868 65.3082C285.561 65.8622 284.545 66.6293 283.821 67.6094C283.111 68.5753 282.756 69.6761 282.756 70.9119C282.756 71.9489 282.997 72.8437 283.48 73.5966C283.977 74.3494 284.624 74.9815 285.419 75.4929C286.229 75.9901 287.095 76.4091 288.018 76.75C288.942 77.0767 289.83 77.3466 290.682 77.5597L294.943 78.6676C296.335 79.0085 297.763 79.4702 299.226 80.0526C300.689 80.6349 302.045 81.402 303.295 82.3537C304.545 83.3054 305.554 84.4844 306.321 85.8906C307.102 87.2969 307.493 88.9801 307.493 90.9403C307.493 93.4119 306.854 95.6065 305.575 97.5241C304.311 99.4418 302.472 100.955 300.057 102.062C297.656 103.17 294.751 103.724 291.342 103.724C288.075 103.724 285.249 103.206 282.862 102.169C280.476 101.132 278.608 99.6619 277.259 97.7585C275.909 95.8409 275.163 93.5682 275.021 90.9403H281.626C281.754 92.517 282.266 93.831 283.161 94.8821C284.07 95.919 285.227 96.6932 286.634 97.2045C288.054 97.7017 289.609 97.9503 291.3 97.9503C293.161 97.9503 294.815 97.6591 296.264 97.0767C297.727 96.4801 298.878 95.6562 299.716 94.6051C300.554 93.5398 300.973 92.2969 300.973 90.8764C300.973 89.5838 300.604 88.5256 299.865 87.7017C299.141 86.8778 298.153 86.196 296.903 85.6562C295.668 85.1165 294.268 84.6406 292.706 84.2287L287.55 82.8224C284.055 81.8707 281.286 80.4716 279.24 78.625C277.209 76.7784 276.193 74.3352 276.193 71.2955C276.193 68.7812 276.875 66.5866 278.239 64.7116C279.602 62.8366 281.449 61.3807 283.778 60.3438C286.108 59.2926 288.736 58.767 291.662 58.767C294.616 58.767 297.223 59.2855 299.482 60.3224C301.754 61.3594 303.544 62.7869 304.851 64.6051C306.158 66.4091 306.839 68.483 306.896 70.8267H300.547ZM328.126 70.2727V75.3864H310.25V70.2727H328.126ZM315.044 62.4318H321.414V93.3906C321.414 94.6264 321.599 95.5568 321.968 96.1818C322.338 96.7926 322.814 97.2116 323.396 97.4389C323.993 97.652 324.639 97.7585 325.335 97.7585C325.846 97.7585 326.294 97.723 326.677 97.652C327.061 97.581 327.359 97.5241 327.572 97.4815L328.723 102.744C328.353 102.886 327.828 103.028 327.146 103.17C326.464 103.327 325.612 103.412 324.589 103.426C322.913 103.455 321.35 103.156 319.902 102.531C318.453 101.906 317.281 100.94 316.386 99.6335C315.491 98.3267 315.044 96.6861 315.044 94.7116V62.4318ZM346.607 103.661C343.539 103.661 340.862 102.957 338.575 101.551C336.288 100.145 334.512 98.1776 333.248 95.6491C331.984 93.1207 331.352 90.1662 331.352 86.7855C331.352 83.3906 331.984 80.4219 333.248 77.8793C334.512 75.3366 336.288 73.3622 338.575 71.956C340.862 70.5497 343.539 69.8466 346.607 69.8466C349.675 69.8466 352.353 70.5497 354.64 71.956C356.927 73.3622 358.702 75.3366 359.967 77.8793C361.231 80.4219 361.863 83.3906 361.863 86.7855C361.863 90.1662 361.231 93.1207 359.967 95.6491C358.702 98.1776 356.927 100.145 354.64 101.551C352.353 102.957 349.675 103.661 346.607 103.661ZM346.629 98.3125C348.617 98.3125 350.265 97.7869 351.572 96.7358C352.879 95.6847 353.844 94.2855 354.469 92.5384C355.109 90.7912 355.428 88.8665 355.428 86.7642C355.428 84.6761 355.109 82.7585 354.469 81.0114C353.844 79.25 352.879 77.8366 351.572 76.7713C350.265 75.706 348.617 75.1733 346.629 75.1733C344.626 75.1733 342.964 75.706 341.643 76.7713C340.336 77.8366 339.363 79.25 338.724 81.0114C338.099 82.7585 337.786 84.6761 337.786 86.7642C337.786 88.8665 338.099 90.7912 338.724 92.5384C339.363 94.2855 340.336 95.6847 341.643 96.7358C342.964 97.7869 344.626 98.3125 346.629 98.3125ZM366.974 103V70.2727H373.132V75.4716H373.473C374.069 73.7102 375.12 72.3253 376.626 71.3168C378.146 70.294 379.865 69.7827 381.782 69.7827C382.18 69.7827 382.649 69.7969 383.189 69.8253C383.743 69.8537 384.176 69.8892 384.488 69.9318V76.0256C384.233 75.9545 383.778 75.8764 383.125 75.7912C382.471 75.6918 381.818 75.642 381.164 75.642C379.659 75.642 378.316 75.9616 377.137 76.6009C375.973 77.2259 375.049 78.0994 374.368 79.2216C373.686 80.3295 373.345 81.5937 373.345 83.0142V103H366.974ZM400.935 103.661C397.71 103.661 394.933 102.972 392.604 101.594C390.288 100.202 388.499 98.2486 387.234 95.7344C385.984 93.206 385.359 90.2443 385.359 86.8494C385.359 83.4972 385.984 80.5426 387.234 77.9858C388.499 75.429 390.26 73.4332 392.518 71.9986C394.791 70.5639 397.447 69.8466 400.487 69.8466C402.334 69.8466 404.124 70.152 405.857 70.7628C407.589 71.3736 409.145 72.3324 410.523 73.6392C411.901 74.946 412.987 76.6435 413.783 78.7315C414.578 80.8054 414.976 83.3267 414.976 86.2955V88.554H388.96V83.7812H408.733C408.733 82.1051 408.392 80.6207 407.71 79.3281C407.028 78.0213 406.07 76.9915 404.834 76.2386C403.612 75.4858 402.178 75.1094 400.53 75.1094C398.74 75.1094 397.178 75.5497 395.842 76.4304C394.521 77.2969 393.499 78.4332 392.774 79.8395C392.064 81.2315 391.709 82.7443 391.709 84.3778V88.1065C391.709 90.294 392.092 92.1548 392.859 93.6889C393.641 95.223 394.727 96.3949 396.119 97.2045C397.511 98 399.138 98.3977 400.999 98.3977C402.206 98.3977 403.307 98.2273 404.301 97.8864C405.295 97.5312 406.155 97.0057 406.879 96.3097C407.604 95.6136 408.158 94.7543 408.541 93.7315L414.571 94.8182C414.088 96.5937 413.222 98.1491 411.972 99.4844C410.736 100.805 409.18 101.835 407.305 102.574C405.445 103.298 403.321 103.661 400.935 103.661Z" fill="white"/>
</svg>
