<svg width="359" height="192" viewBox="0 0 359 192" fill="none" xmlns="http://www.w3.org/2000/svg">
<path d="M14.125 65C15.7917 65 17.1875 65.6167 18.3125 66.85C19.4375 68.0833 20 69.55 20 71.25C20 71.55 19.9833 71.8458 19.95 72.1375C19.9167 72.4292 19.8583 72.7167 19.775 73H13.525L11.825 70.45C11.7417 70.3167 11.625 70.2083 11.475 70.125C11.325 70.0417 11.1667 70 11 70C10.7833 70 10.5875 70.0667 10.4125 70.2C10.2375 70.3333 10.1167 70.5 10.05 70.7L8.7 74.75L7.825 73.45C7.74167 73.3167 7.625 73.2083 7.475 73.125C7.325 73.0417 7.16667 73 7 73H0.225C0.141667 72.7167 0.0833333 72.4292 0.05 72.1375C0.0166667 71.8458 0 71.5583 0 71.275C0 69.5583 0.558333 68.0833 1.675 66.85C2.79167 65.6167 4.18333 65 5.85 65C6.65 65 7.40417 65.1583 8.1125 65.475C8.82083 65.7917 9.45 66.2333 10 66.8C10.5333 66.2333 11.1542 65.7917 11.8625 65.475C12.5708 65.1583 13.325 65 14.125 65ZM10 83C9.7 83 9.4125 82.9458 9.1375 82.8375C8.8625 82.7292 8.61667 82.5667 8.4 82.35L1.7 75.625C1.6 75.525 1.50833 75.425 1.425 75.325C1.34167 75.225 1.25833 75.1167 1.175 75H6.45L8.15 77.55C8.23333 77.6833 8.35 77.7917 8.5 77.875C8.65 77.9583 8.80833 78 8.975 78C9.19167 78 9.39167 77.9333 9.575 77.8C9.75833 77.6667 9.88333 77.5 9.95 77.3L11.3 73.25L12.15 74.55C12.25 74.6833 12.375 74.7917 12.525 74.875C12.675 74.9583 12.8333 75 13 75H18.8L18.55 75.3L18.3 75.6L11.575 82.35C11.3583 82.5667 11.1167 82.7292 10.85 82.8375C10.5833 82.9458 10.3 83 10 83Z" fill="url(#paint0_linear_2035_780)" fill-opacity="0.6"/>
<mask id="mask0_2035_780" style="mask-type:alpha" maskUnits="userSpaceOnUse" x="0" y="0" width="359" height="192">
<path d="M0 20C0 8.95431 8.95431 0 20 0H339C350.046 0 359 8.9543 359 20V172C359 183.046 350.046 192 339 192H20C8.95431 192 0 183.046 0 172V20Z" fill="url(#paint1_linear_2035_780)"/>
</mask>
<g mask="url(#mask0_2035_780)">
<path opacity="0.5" d="M-16 57.0762L41.076 0.000143234" stroke="url(#paint2_linear_2035_780)" stroke-width="26" stroke-linecap="round"/>
<path d="M340.65 0C355.004 0 367.025 5.30747 376.714 15.9224C386.403 26.5373 391.247 39.1605 391.247 53.7919C391.247 56.3739 391.104 58.92 390.817 61.4303C390.53 63.9406 390.027 66.415 389.31 68.8536H335.482L320.841 46.9065C320.124 45.759 319.119 44.8266 317.827 44.1093C316.535 43.3921 315.171 43.0335 313.736 43.0335C311.87 43.0335 310.183 43.6073 308.676 44.7548C307.169 45.9024 306.128 47.3369 305.554 49.0582L293.928 83.9153L286.392 72.7266C285.674 71.5791 284.669 70.6467 283.377 69.9295C282.086 69.2122 280.722 68.8536 279.287 68.8536H220.938C220.22 66.415 219.718 63.9406 219.431 61.4303C219.144 58.92 219 56.4456 219 54.0071C219 39.2322 223.809 26.5373 233.426 15.9224C243.043 5.30747 255.028 0 269.382 0C276.272 0 282.767 1.36273 288.868 4.08818C294.968 6.81364 300.387 10.6149 305.124 15.4921C309.717 10.6149 315.064 6.81364 321.164 4.08818C327.265 1.36273 333.76 0 340.65 0ZM305.124 154.921C302.54 154.921 300.064 154.454 297.695 153.522C295.327 152.59 293.21 151.191 291.344 149.326L233.641 91.4462C232.78 90.5855 231.99 89.7249 231.273 88.8642C230.555 88.0035 229.837 87.0711 229.12 86.067H274.55L289.191 108.014C289.908 109.162 290.913 110.094 292.205 110.811C293.497 111.529 294.861 111.887 296.296 111.887C298.162 111.887 299.884 111.313 301.463 110.166C303.042 109.018 304.119 107.584 304.693 105.862L316.32 71.0053L323.64 82.194C324.501 83.3416 325.578 84.274 326.87 84.9912C328.162 85.7084 329.525 86.067 330.961 86.067H380.912L378.759 88.649L376.606 91.231L318.688 149.326C316.822 151.191 314.741 152.59 312.444 153.522C310.148 154.454 307.707 154.921 305.124 154.921Z" fill="url(#paint3_linear_2035_780)" fill-opacity="0.4"/>
<path d="M347.914 152C350.971 152 353.532 153.117 355.596 155.352C357.66 157.587 358.692 160.244 358.692 163.325C358.692 163.868 358.661 164.404 358.6 164.933C358.539 165.461 358.432 165.982 358.279 166.495H346.813L343.694 161.875C343.541 161.633 343.327 161.437 343.052 161.286C342.777 161.135 342.486 161.06 342.18 161.06C341.783 161.06 341.424 161.18 341.103 161.422C340.782 161.664 340.56 161.966 340.438 162.328L337.961 169.666L336.356 167.311C336.203 167.069 335.989 166.873 335.714 166.722C335.438 166.571 335.148 166.495 334.842 166.495H322.413C322.26 165.982 322.153 165.461 322.092 164.933C322.031 164.404 322 163.883 322 163.37C322 160.259 323.024 157.587 325.073 155.352C327.122 153.117 329.675 152 332.732 152C334.2 152 335.584 152.287 336.883 152.861C338.183 153.434 339.337 154.235 340.346 155.261C341.324 154.235 342.463 153.434 343.763 152.861C345.062 152.287 346.446 152 347.914 152ZM340.346 184.615C339.795 184.615 339.268 184.517 338.764 184.32C338.259 184.124 337.808 183.83 337.411 183.437L325.119 171.252C324.935 171.071 324.767 170.889 324.614 170.708C324.461 170.527 324.309 170.331 324.156 170.119H333.833L336.952 174.74C337.105 174.981 337.319 175.178 337.594 175.329C337.869 175.48 338.16 175.555 338.465 175.555C338.863 175.555 339.23 175.434 339.566 175.193C339.903 174.951 340.132 174.649 340.254 174.287L342.731 166.948L344.29 169.304C344.474 169.546 344.703 169.742 344.978 169.893C345.253 170.044 345.544 170.119 345.85 170.119H356.49L356.032 170.663L355.573 171.207L343.235 183.437C342.838 183.83 342.394 184.124 341.905 184.32C341.416 184.517 340.896 184.615 340.346 184.615Z" fill="url(#paint4_linear_2035_780)"/>
</g>
<defs>
<linearGradient id="paint0_linear_2035_780" x1="15" y1="69.7333" x2="4.66667" y2="81.8" gradientUnits="userSpaceOnUse">
<stop stop-color="#F5A63A"/>
<stop offset="1" stop-color="#EE7C1B" stop-opacity="0.27"/>
</linearGradient>
<linearGradient id="paint1_linear_2035_780" x1="23.6388" y1="218" x2="289.269" y2="35.345" gradientUnits="userSpaceOnUse">
<stop stop-color="#EE7A1B"/>
<stop offset="1" stop-color="#F5A63A"/>
</linearGradient>
<linearGradient id="paint2_linear_2035_780" x1="-15.6464" y1="57.4297" x2="41.4296" y2="0.353695" gradientUnits="userSpaceOnUse">
<stop stop-color="#EE7C1B" stop-opacity="0"/>
<stop offset="1" stop-color="#F5A63A"/>
</linearGradient>
<linearGradient id="paint3_linear_2035_780" x1="339.573" y1="63.1158" x2="294.258" y2="136.013" gradientUnits="userSpaceOnUse">
<stop stop-color="#B55200"/>
<stop offset="1" stop-color="#EE7C1B" stop-opacity="0.27"/>
</linearGradient>
<linearGradient id="paint4_linear_2035_780" x1="349.519" y1="160.577" x2="330.833" y2="182.67" gradientUnits="userSpaceOnUse">
<stop stop-color="#F5A63A"/>
<stop offset="1" stop-color="#EE7C1B" stop-opacity="0.27"/>
</linearGradient>
</defs>
</svg>
