<svg width="360" height="187" viewBox="0 0 360 187" fill="none" xmlns="http://www.w3.org/2000/svg">
<mask id="mask0_2035_792" style="mask-type:alpha" maskUnits="userSpaceOnUse" x="0" y="0" width="360" height="187">
<rect width="360" height="187" rx="20" fill="url(#paint0_linear_2035_792)"/>
</mask>
<g mask="url(#mask0_2035_792)">
<circle cx="277.113" cy="1.05608" r="21.2746" transform="rotate(-15 277.113 1.05608)" fill="url(#paint1_linear_2035_792)"/>
<circle cx="83" cy="1.55176" r="21" fill="url(#paint2_linear_2035_792)"/>
<path opacity="0.35" d="M209 -33H139.199C139.199 -5.01671 116.687 17.6178 89 17.6178C61.248 17.6178 38.8005 -5.08194 38.8005 -33H-31C-31 33.8598 22.7574 88 89 88C155.243 88 209 33.8598 209 -33Z" fill="url(#paint3_linear_2035_792)"/>
<path opacity="0.35" d="M388 -33H318.199C318.199 -5.01671 295.687 17.6178 268 17.6178C240.248 17.6178 217.801 -5.08194 217.801 -33H148C148 33.8598 201.757 88 268 88C334.243 88 388 33.8598 388 -33Z" fill="url(#paint4_linear_2035_792)"/>
<path opacity="0.35" d="M303.721 199.163L315.872 187.21C311.08 182.339 311.122 174.544 315.942 169.802C320.773 165.05 328.568 165.157 333.349 170.017L345.499 158.063C334.05 146.425 315.42 146.206 303.889 157.55C292.358 168.894 292.271 187.525 303.721 199.163Z" fill="url(#paint5_linear_2035_792)"/>
<path d="M329 128C316.827 128 305.387 125.689 294.68 121.066C283.973 116.449 274.66 110.18 266.74 102.26C258.82 94.34 252.551 85.0267 247.934 74.32C243.311 63.6133 241 52.1733 241 40C241 27.8267 243.311 16.3867 247.934 5.68001C252.551 -5.02666 258.82 -14.34 266.74 -22.26C274.66 -30.18 283.973 -36.4515 294.68 -41.0744C305.387 -45.6915 316.827 -48 329 -48C341.173 -48 352.613 -45.6915 363.32 -41.0744C374.027 -36.4515 383.34 -30.18 391.26 -22.26C399.18 -14.34 405.449 -5.02666 410.066 5.68001C414.689 16.3867 417 27.8267 417 40C417 52.1733 414.689 63.6133 410.066 74.32C405.449 85.0267 399.18 94.34 391.26 102.26C383.34 110.18 374.027 116.449 363.32 121.066C352.613 125.689 341.173 128 329 128ZM329 110.4C337.213 110.4 344.949 109.115 352.206 106.546C359.469 103.982 366.107 100.353 372.12 95.66L359.58 83.12C355.327 86.2 350.598 88.5819 345.394 90.2656C340.185 91.9552 334.72 92.8 329 92.8C314.333 92.8 301.867 87.6667 291.6 77.4C281.333 67.1333 276.2 54.6667 276.2 40C276.2 25.3333 281.333 12.8667 291.6 2.6C301.867 -7.66666 314.333 -12.8 329 -12.8C343.667 -12.8 356.133 -7.66666 366.4 2.6C376.667 12.8667 381.8 25.3333 381.8 40C381.8 45.72 380.92 51.22 379.16 56.5C377.4 61.78 374.98 66.5467 371.9 70.8L384.44 83.34C389.133 77.3267 392.8 70.6533 395.44 63.32C398.08 55.9867 399.4 48.2133 399.4 40C399.4 20.3467 392.58 3.7 378.94 -9.94C365.3 -23.58 348.653 -30.4 329 -30.4C309.347 -30.4 292.7 -23.58 279.06 -9.94C265.42 3.7 258.6 20.3467 258.6 40C258.6 59.6533 265.42 76.3 279.06 89.94C292.7 103.58 309.347 110.4 329 110.4ZM329 75.2C332.227 75.2 335.342 74.7981 338.346 73.9944C341.355 73.1848 344.18 71.9733 346.82 70.36L333.4 56.94C332.667 57.2333 331.933 57.4181 331.2 57.4944C330.467 57.5648 329.733 57.6 329 57.6C324.16 57.6 320.018 55.8752 316.574 52.4256C313.125 48.9819 311.4 44.84 311.4 40C311.4 35.16 313.125 31.0152 316.574 27.5656C320.018 24.1219 324.16 22.4 329 22.4C333.84 22.4 337.985 24.1219 341.434 27.5656C344.878 31.0152 346.6 35.16 346.6 40C346.6 40.88 346.565 41.7219 346.494 42.5256C346.418 43.3352 346.233 44.1067 345.94 44.84L359.14 58.04C360.753 55.4 362 52.5752 362.88 49.5656C363.76 46.5619 364.2 43.3733 364.2 40C364.2 30.32 360.753 22.0333 353.86 15.14C346.967 8.24667 338.68 4.8 329 4.8C319.32 4.8 311.033 8.24667 304.14 15.14C297.247 22.0333 293.8 30.32 293.8 40C293.8 49.68 297.247 57.9667 304.14 64.86C311.033 71.7533 319.32 75.2 329 75.2Z" fill="url(#paint6_linear_2035_792)" fill-opacity="0.3"/>
</g>
<defs>
<linearGradient id="paint0_linear_2035_792" x1="351.841" y1="66.7161" x2="323.539" y2="26.0306" gradientUnits="userSpaceOnUse">
<stop offset="1" stop-color="#EE7C1B"/>
</linearGradient>
<linearGradient id="paint1_linear_2035_792" x1="277.113" y1="-20.2185" x2="277.113" y2="22.3306" gradientUnits="userSpaceOnUse">
<stop stop-color="#F9D978"/>
<stop offset="1" stop-color="#F9D978" stop-opacity="0"/>
</linearGradient>
<linearGradient id="paint2_linear_2035_792" x1="83" y1="-19.4482" x2="83" y2="22.5518" gradientUnits="userSpaceOnUse">
<stop stop-color="#F9D978"/>
<stop offset="1" stop-color="#F9D978" stop-opacity="0"/>
</linearGradient>
<linearGradient id="paint3_linear_2035_792" x1="89" y1="-33" x2="89" y2="88" gradientUnits="userSpaceOnUse">
<stop stop-color="#FBCF58"/>
<stop offset="1" stop-color="#EE7C1B"/>
</linearGradient>
<linearGradient id="paint4_linear_2035_792" x1="268" y1="-33" x2="268" y2="88" gradientUnits="userSpaceOnUse">
<stop stop-color="#FBCF58"/>
<stop offset="1" stop-color="#EE7C1B"/>
</linearGradient>
<linearGradient id="paint5_linear_2035_792" x1="324.61" y1="178.613" x2="303.889" y2="157.55" gradientUnits="userSpaceOnUse">
<stop stop-color="#FBCF58"/>
<stop offset="1" stop-color="#EE7C1B"/>
</linearGradient>
<linearGradient id="paint6_linear_2035_792" x1="363.142" y1="14.5137" x2="329" y2="128" gradientUnits="userSpaceOnUse">
<stop offset="0.201923" stop-color="#B55200"/>
<stop offset="1" stop-color="#4F2400" stop-opacity="0"/>
</linearGradient>
</defs>
</svg>
