<svg width="375" height="204" viewBox="0 0 375 204" fill="none" xmlns="http://www.w3.org/2000/svg">
<mask id="mask0_2035_737" style="mask-type:alpha" maskUnits="userSpaceOnUse" x="0" y="0" width="375" height="204">
<rect width="374.277" height="202.587" rx="20" transform="matrix(0.999993 -0.00377837 0.00358214 0.999994 0 1.41406)" fill="url(#paint0_linear_2035_737)"/>
</mask>
<g mask="url(#mask0_2035_737)">
<path d="M383.994 49.0013H323.726L348.082 23.2564C323.814 -1.39297 284.524 -2.30591 260.257 22.3434C235.99 47.0841 235.99 86.9795 260.257 111.72C284.524 136.461 323.814 136.461 348.082 111.72C360.171 99.4868 366.216 85.1537 366.216 67.0775H383.994C383.994 85.1537 376.172 108.616 360.527 124.501C329.326 156.272 278.658 156.272 247.457 124.501C216.345 92.8223 216.078 41.3326 247.279 9.65359C278.48 -22.0254 328.526 -22.0254 359.727 9.65359L383.994 -16V49.0013ZM308.436 29.647V68.4469L339.548 87.436L333.148 98.4826L295.102 75.2939V29.647H308.436Z" fill="url(#paint1_linear_2035_737)" fill-opacity="0.4"/>
<path d="M209.437 35.3994C229.689 27.5394 238.344 8.22293 240.139 -0.452809L26.5425 -31.7386L-62.8213 -25.429L-70.2887 146.46C-67.3209 125.38 -56.792 82.1002 -38.4195 77.6147C-15.4538 72.0078 38.3309 117.031 84.7714 95.2708C131.212 73.5105 131.519 28.9759 151.362 30.6117C171.204 32.2475 177.719 40.726 209.437 35.3994Z" fill="url(#paint2_linear_2035_737)" fill-opacity="0.7"/>
<path d="M-5.39875 76.2451L-8.09582 75.2215L2.00014 59.2422L-7.43963 55.6594C-9.00394 55.0657 -8.63873 54.2986 -7.76691 53.6673C-6.89509 53.0359 -7.5475 53.5241 -7.45128 53.4475C-1.56213 49.2299 7.26395 42.9573 19.0211 34.5708L21.7182 35.5944L11.6222 51.5736L21.062 55.1565C22.3836 55.6581 22.2236 56.5313 21.7906 56.8764L21.4432 57.1691C3.53412 69.8715 -5.39875 76.2451 -5.39875 76.2451Z" fill="url(#paint3_linear_2035_737)" fill-opacity="0.98"/>
<path d="M48.7781 37.8125L46.081 36.7889L56.177 20.8096L46.7372 17.2268C45.1729 16.6331 45.5381 15.866 46.4099 15.2347C47.2817 14.6033 46.6293 15.0915 46.7255 15.0148C52.6147 10.7973 61.4408 4.52466 73.1979 -3.86186L75.895 -2.83819L65.799 13.141L75.2388 16.7239C76.5604 17.2255 76.4004 18.0987 75.9674 18.4438L75.62 18.7365C57.7109 31.4389 48.7781 37.8125 48.7781 37.8125Z" fill="url(#paint4_linear_2035_737)" fill-opacity="0.98"/>
<path d="M188.309 198.947L183.807 197.82L196.754 169.514L180.996 165.57C178.385 164.917 178.816 163.582 180.082 162.367C181.347 161.151 180.403 162.087 180.541 161.941C189.1 153.808 201.936 141.697 219.029 125.514L223.531 126.641L210.584 154.948L226.342 158.891C228.548 159.443 228.465 160.91 227.843 161.565L227.347 162.117C201.296 186.649 188.309 198.947 188.309 198.947Z" fill="url(#paint5_linear_2035_737)" fill-opacity="0.98"/>
<path d="M384.663 251.183L380.161 250.056L393.108 221.75L377.35 217.807C374.738 217.153 375.17 215.819 376.435 214.603C377.701 213.388 376.757 214.323 376.895 214.178C385.454 206.044 398.29 193.934 415.382 177.751L419.885 178.877L406.938 207.184L422.696 211.127C424.902 211.68 424.819 213.146 424.196 213.801L423.7 214.353C397.649 238.885 384.663 251.183 384.663 251.183Z" fill="url(#paint6_linear_2035_737)" fill-opacity="0.98"/>
<path d="M200.133 50.5332L196.847 49.7108L206.297 29.0484L194.795 26.17C192.889 25.693 193.203 24.719 194.127 23.8317C195.051 22.9444 194.362 23.6273 194.463 23.521C200.71 17.584 210.08 8.74396 222.557 -3.06868L225.843 -2.24628L216.392 18.4161L227.895 21.2946C229.505 21.6975 229.445 22.768 228.99 23.2464L228.628 23.6492C209.613 41.5562 200.133 50.5332 200.133 50.5332Z" fill="url(#paint7_linear_2035_737)" fill-opacity="0.98"/>
<path d="M147.419 127.561L144.664 126.872L152.587 109.55L142.944 107.137C141.346 106.737 141.61 105.921 142.384 105.177C143.159 104.433 142.581 105.006 142.666 104.917C147.903 99.9395 155.757 92.5288 166.217 82.6262L168.972 83.3156L161.049 100.637L170.692 103.05C172.042 103.388 171.991 104.285 171.61 104.686L171.307 105.024C155.366 120.036 147.419 127.561 147.419 127.561Z" fill="url(#paint8_linear_2035_737)" fill-opacity="0.98"/>
<path d="M74.9298 110.796L70.4275 109.67L83.3744 81.3631L67.6165 77.4198C65.0052 76.7663 65.4363 75.4321 66.7019 74.2165C67.9675 73.001 67.0235 73.9365 67.1618 73.7908C75.7202 65.6574 88.5563 53.5469 105.649 37.3641L110.151 38.4908L97.2044 66.7974L112.962 70.7407C115.168 71.2928 115.085 72.7592 114.463 73.4147L113.967 73.9665C87.9162 98.4983 74.9298 110.796 74.9298 110.796Z" fill="url(#paint9_linear_2035_737)" fill-opacity="0.98"/>
<path d="M123.797 41.5777L120.845 40.8389L129.334 22.2788L119.002 19.6933C117.29 19.2648 117.572 18.39 118.402 17.593C119.232 16.796 118.613 17.4093 118.704 17.3138C124.315 11.9809 132.732 4.04032 143.939 -6.57043L146.891 -5.8317L138.402 12.7284L148.734 15.3139C150.181 15.6759 150.126 16.6374 149.718 17.0672L149.393 17.429C132.312 33.514 123.797 41.5777 123.797 41.5777Z" fill="url(#paint10_linear_2035_737)" fill-opacity="0.98"/>
</g>
<defs>
<linearGradient id="paint0_linear_2035_737" x1="278.852" y1="101.294" x2="48.2742" y2="128.991" gradientUnits="userSpaceOnUse">
<stop stop-color="#FBCF58"/>
<stop offset="1" stop-color="#EE7C1B"/>
</linearGradient>
<linearGradient id="paint1_linear_2035_737" x1="307.181" y1="15.0157" x2="234.538" y2="77.302" gradientUnits="userSpaceOnUse">
<stop stop-color="#B55200"/>
<stop offset="1" stop-color="#B55200" stop-opacity="0"/>
</linearGradient>
<linearGradient id="paint2_linear_2035_737" x1="96.9438" y1="-2.55178" x2="-78.9294" y2="173.8" gradientUnits="userSpaceOnUse">
<stop stop-color="#F5A63A"/>
<stop offset="1" stop-color="#F5A63A" stop-opacity="0"/>
</linearGradient>
<linearGradient id="paint3_linear_2035_737" x1="16.334" y1="33.5509" x2="-0.566657" y2="78.0791" gradientUnits="userSpaceOnUse">
<stop stop-color="#F9D978"/>
<stop offset="1" stop-color="#FFD146" stop-opacity="0"/>
</linearGradient>
<linearGradient id="paint4_linear_2035_737" x1="70.5108" y1="-4.88177" x2="53.6102" y2="39.6465" gradientUnits="userSpaceOnUse">
<stop stop-color="#F9D978"/>
<stop offset="1" stop-color="#FFD146" stop-opacity="0"/>
</linearGradient>
<linearGradient id="paint5_linear_2035_737" x1="214.543" y1="124.392" x2="195.44" y2="200.731" gradientUnits="userSpaceOnUse">
<stop stop-color="#FFD146"/>
<stop offset="1" stop-color="#F5A63A" stop-opacity="0"/>
</linearGradient>
<linearGradient id="paint6_linear_2035_737" x1="410.897" y1="176.628" x2="391.793" y2="252.967" gradientUnits="userSpaceOnUse">
<stop stop-color="#EE7C1A"/>
<stop offset="1" stop-color="#FFD146" stop-opacity="0"/>
</linearGradient>
<linearGradient id="paint7_linear_2035_737" x1="219.282" y1="-3.88806" x2="205.338" y2="51.8356" gradientUnits="userSpaceOnUse">
<stop stop-color="#FFD146"/>
<stop offset="1" stop-color="#FFD146" stop-opacity="0"/>
</linearGradient>
<linearGradient id="paint8_linear_2035_737" x1="163.472" y1="81.9393" x2="151.782" y2="128.653" gradientUnits="userSpaceOnUse">
<stop stop-color="#FFD146"/>
<stop offset="1" stop-color="#FFD146" stop-opacity="0"/>
</linearGradient>
<linearGradient id="paint9_linear_2035_737" x1="101.163" y1="36.2416" x2="82.0599" y2="112.581" gradientUnits="userSpaceOnUse">
<stop stop-color="#FFD146"/>
<stop offset="1" stop-color="#FFD146" stop-opacity="0"/>
</linearGradient>
<linearGradient id="paint10_linear_2035_737" x1="140.998" y1="-7.30644" x2="128.472" y2="42.7476" gradientUnits="userSpaceOnUse">
<stop stop-color="#FFD146"/>
<stop offset="1" stop-color="#FFD146" stop-opacity="0"/>
</linearGradient>
</defs>
</svg>
